<?xml version="1.0" standalone="no"?>
<!DOCTYPE svg PUBLIC "-//W3C//DTD SVG 20010904//EN"
 "http://www.w3.org/TR/2001/REC-SVG-20010904/DTD/svg10.dtd">
<svg version="1.0" xmlns="http://www.w3.org/2000/svg"
 width="500.000000pt" height="500.000000pt" viewBox="0 0 500.000000 500.000000"
 preserveAspectRatio="xMidYMid meet">

<g transform="translate(0.000000,500.000000) scale(0.100000,-0.100000)"
fill="#000000" stroke="none">
<path d="M0 2500 l0 -2500 2500 0 2500 0 0 2500 0 2500 -2500 0 -2500 0 0
-2500z m2610 851 c-8 -5 -26 -11 -40 -15 -21 -5 -20 -3 5 9 32 15 60 20 35 6z
m-83 -7 c-3 -3 -12 -4 -19 -1 -8 3 -5 6 6 6 11 1 17 -2 13 -5z m-53 -19 c-4
-8 -11 -12 -16 -9 -6 4 -5 10 3 15 19 12 19 11 13 -6z m61 -4 c3 -5 2 -12 -3
-15 -5 -3 -9 1 -9 9 0 17 3 19 12 6z m145 -16 c-7 -8 -20 -15 -29 -15 -11 1
-8 5 9 15 32 18 35 18 20 0z m-240 1 c0 -2 -8 -10 -17 -17 -16 -13 -17 -12 -4
4 13 16 21 21 21 13z m50 -17 c0 -5 5 -7 10 -4 16 10 11 -1 -7 -16 -11 -10
-14 -10 -9 -1 4 6 2 12 -3 12 -6 0 -11 5 -11 10 0 6 5 10 10 10 6 0 10 -5 10
-11z m125 -9 c-27 -12 -43 -12 -25 0 8 5 22 9 30 9 10 0 8 -3 -5 -9z m-211
-19 c3 -5 -1 -11 -9 -14 -9 -4 -12 -1 -8 9 6 16 10 17 17 5z m36 -15 c0 -3 -4
-8 -10 -11 -5 -3 -10 -1 -10 4 0 6 5 11 10 11 6 0 10 -2 10 -4z m97 -38 c-3
-8 -6 -5 -6 6 -1 11 2 17 5 13 3 -3 4 -12 1 -19z m33 8 c0 -3 -4 -8 -10 -11
-5 -3 -10 -1 -10 4 0 6 5 11 10 11 6 0 10 -2 10 -4z m-213 -68 c-3 -8 -6 -5
-6 6 -1 11 2 17 5 13 3 -3 4 -12 1 -19z m203 8 c0 -3 -4 -8 -10 -11 -5 -3 -10
-1 -10 4 0 6 5 11 10 11 6 0 10 -2 10 -4z m45 -16 c3 -5 1 -10 -4 -10 -6 0
-11 5 -11 10 0 6 2 10 4 10 3 0 8 -4 11 -10z m-138 -22 c-3 -8 -6 -5 -6 6 -1
11 2 17 5 13 3 -3 4 -12 1 -19z m-132 -159 l18 -37 -136 -221 c-75 -121 -133
-223 -129 -225 4 -2 117 -4 252 -5 135 0 259 -1 276 -1 29 0 33 -4 43 -44 6
-25 11 -61 11 -80 l0 -36 -440 0 c-242 0 -440 3 -440 6 0 4 111 188 248 410
l247 403 16 -67 c9 -37 24 -83 34 -103z m242 149 c-3 -8 -6 -5 -6 6 -1 11 2
17 5 13 3 -3 4 -12 1 -19z m-220 -50 c-3 -7 -5 -2 -5 12 0 14 2 19 5 13 2 -7
2 -19 0 -25z m154 -12 c5 -6 9 -14 9 -20 0 -5 -7 -1 -15 10 -8 10 -14 28 -14
39 l1 20 5 -20 c3 -11 9 -24 14 -29z m172 -6 c-6 -6 -33 30 -33 43 0 5 9 -1
19 -14 11 -13 17 -26 14 -29z m-1117 9 l22 -21 -48 -63 c-141 -186 -141 -444
0 -630 l48 -63 -24 -23 -25 -23 -29 29 c-16 17 -45 57 -65 90 -99 166 -109
376 -27 556 27 60 104 169 119 169 4 0 17 -9 29 -21z m1034 -22 c0 -16 -18 3
-23 25 -6 22 -5 22 8 4 8 -11 15 -24 15 -29z m835 1 c20 -24 52 -74 71 -113
104 -211 77 -454 -70 -642 l-40 -53 -28 27 -27 26 38 46 c154 185 156 471 5
658 -39 48 -40 50 -17 75 23 25 27 24 68 -24z m-941 -28 c-6 -6 -10 -3 -10 10
0 13 4 16 10 10 7 -7 7 -13 0 -20z m189 16 c4 -10 1 -13 -9 -9 -7 3 -14 9 -14
14 0 14 17 10 23 -5z m-288 -16 c3 -5 1 -10 -4 -10 -6 0 -11 5 -11 10 0 6 2
10 4 10 3 0 8 -4 11 -10z m328 -5 c-3 -9 -8 -14 -10 -11 -3 3 -2 9 2 15 9 16
15 13 8 -4z m-195 -40 c-3 -3 -9 2 -12 12 -6 14 -5 15 5 6 7 -7 10 -15 7 -18z
m110 0 c-3 -3 -9 2 -12 12 -6 14 -5 15 5 6 7 -7 10 -15 7 -18z m736 -86 c46
-91 62 -190 47 -283 -13 -78 -56 -173 -101 -226 l-30 -34 -26 25 -26 26 35 46
c52 68 77 144 77 231 0 90 -20 159 -65 227 l-36 52 22 24 23 23 23 -22 c13
-12 39 -52 57 -89z m-1712 14 c-51 -63 -75 -129 -80 -219 -5 -98 13 -170 63
-244 34 -50 34 -52 17 -75 -9 -14 -20 -25 -24 -25 -14 0 -63 68 -92 130 -30
62 -31 71 -31 190 0 121 1 127 33 193 19 37 47 84 64 103 l31 35 25 -24 25
-25 -31 -39z m1078 72 c7 -9 8 -15 2 -15 -5 0 -12 7 -16 15 -3 8 -4 15 -2 15
2 0 9 -7 16 -15z m-70 -15 c0 -5 -2 -10 -4 -10 -3 0 -8 5 -11 10 -3 6 -1 10 4
10 6 0 11 -4 11 -10z m-81 -17 c6 -13 4 -22 -6 -32 -13 -12 -14 -11 -8 9 5 15
4 20 -4 16 -7 -5 -9 -1 -5 8 8 20 11 20 23 -1z m-147 -16 c3 4 3 2 1 -5 -6
-25 9 -34 24 -15 13 17 13 16 3 -4 -14 -30 -22 -29 -43 9 -12 22 -14 28 -3 19
8 -6 16 -8 18 -4z m259 -29 c16 -29 2 -21 -22 15 -17 23 -18 28 -6 18 10 -8
23 -23 28 -33z m155 0 l29 -33 -32 29 c-31 28 -38 36 -30 36 2 0 16 -15 33
-32z m-196 -63 c0 -5 -7 0 -15 12 -9 12 -21 20 -29 17 -7 -3 -19 2 -26 11 -7
9 -8 15 -2 15 6 0 12 -6 15 -12 2 -7 8 -10 12 -6 4 4 4 13 -1 21 -5 7 3 -1 18
-18 15 -16 28 -34 28 -40z m179 41 c0 -7 -2 -6 -6 2 -8 19 -26 14 -18 -5 4
-13 3 -15 -5 -7 -6 6 -8 18 -4 28 5 13 9 14 20 5 8 -6 14 -17 13 -23z m-1078
-65 c-66 -84 -61 -219 11 -298 20 -21 20 -21 -1 -42 -26 -26 -33 -26 -58 2
-64 68 -89 193 -58 288 10 30 31 74 48 97 l29 44 28 -27 29 -28 -28 -36z
m1501 -10 c26 -56 34 -146 19 -208 -7 -26 -28 -72 -47 -102 l-36 -53 -24 23
c-30 28 -30 33 0 72 14 18 31 54 37 80 17 60 1 145 -36 193 -31 40 -31 42 -3
72 l23 23 23 -28 c13 -15 33 -48 44 -72z m-319 11 c24 -25 25 -28 7 -28 -10 0
-17 2 -14 5 2 2 -3 15 -11 28 -20 31 -15 29 18 -5z m-185 -7 c-3 -3 -9 2 -12
12 -6 14 -5 15 5 6 7 -7 10 -15 7 -18z m-68 -10 c14 -19 14 -19 -2 -6 -10 7
-18 18 -18 24 0 6 1 8 3 6 1 -2 9 -13 17 -24z m95 -10 c1 -13 -2 -22 -6 -20
-3 3 -6 16 -6 30 0 32 12 22 12 -10z m109 9 c3 -8 2 -12 -4 -9 -6 3 -10 10
-10 16 0 14 7 11 14 -7z m-224 -9 c7 -9 8 -15 2 -15 -5 0 -12 7 -16 15 -3 8
-4 15 -2 15 2 0 9 -7 16 -15z m-20 -40 c0 -5 -5 -3 -10 5 -5 8 -10 20 -10 25
0 6 5 3 10 -5 5 -8 10 -19 10 -25z m60 15 c0 -5 -2 -10 -4 -10 -3 0 -8 5 -11
10 -3 6 -1 10 4 10 6 0 11 -4 11 -10z m-90 -16 c0 -8 -4 -12 -10 -9 -5 3 -10
10 -10 16 0 5 5 9 10 9 6 0 10 -7 10 -16z m400 -38 c0 -5 -9 3 -20 17 -11 14
-20 29 -20 34 1 10 39 -39 40 -51z m-266 -16 c-6 -5 -24 21 -24 34 0 6 6 1 14
-10 8 -10 12 -21 10 -24z m116 -14 c0 -6 -7 -1 -15 10 -8 10 -15 23 -15 28 0
6 7 1 15 -10 8 -10 15 -23 15 -28z m-247 -17 c4 -16 3 -18 -9 -8 -16 13 -19
29 -5 29 5 0 11 -9 14 -21z m158 -1 c9 -18 9 -21 -1 -11 -7 6 -20 9 -28 5 -15
-5 -15 -4 -2 11 19 21 17 21 31 -5z m273 -38 c-5 -5 -9 4 -10 23 -1 30 -1 30
9 9 6 -14 7 -26 1 -32z m-367 -32 c-3 -7 -5 -2 -5 12 0 14 2 19 5 13 2 -7 2
-19 0 -25z m258 2 c3 -5 1 -10 -4 -10 -6 0 -11 5 -11 10 0 6 2 10 4 10 3 0 8
-4 11 -10z m-116 -40 c0 -10 -3 -8 -9 5 -8 19 -9 19 -9 1 -1 -11 -4 -17 -7
-13 -3 3 -3 15 1 28 6 17 9 19 16 8 5 -8 8 -21 8 -29z m-129 -41 c12 -22 20
-44 18 -49 -2 -4 -13 14 -25 41 -26 59 -21 65 7 8z m18 6 c-3 -3 -9 2 -12 12
-6 14 -5 15 5 6 7 -7 10 -15 7 -18z m229 3 c-3 -8 -6 -5 -6 6 -1 11 2 17 5 13
3 -3 4 -12 1 -19z m-91 -75 c1 -21 -1 -29 -4 -19 -3 14 -6 16 -12 6 -5 -8 -8
-4 -7 13 1 14 5 23 10 20 4 -2 7 1 7 6 0 6 1 11 3 11 2 0 3 -17 3 -37z m144
-13 c0 -4 -6 -13 -14 -19 -10 -9 -15 -8 -19 3 -4 10 -1 13 9 9 21 -8 17 10 -6
25 -15 9 -20 9 -20 0 0 -6 -3 -9 -6 -5 -3 3 -3 10 1 16 6 11 55 -14 55 -29z
m30 26 c0 -3 -4 -8 -10 -11 -5 -3 -10 -1 -10 4 0 6 5 11 10 11 6 0 10 -2 10
-4z m-10 -39 c0 -2 -17 -19 -37 -38 -20 -18 -32 -27 -25 -18 6 9 8 20 4 24 -4
5 -2 5 4 2 6 -4 19 2 29 13 17 19 25 24 25 17z m-103 -39 c-3 -8 -6 -5 -6 6
-1 11 2 17 5 13 3 -3 4 -12 1 -19z m-97 -8 c5 9 9 8 13 -3 4 -10 0 -14 -11
-13 -9 2 -17 8 -18 15 -2 8 -1 8 3 0 4 -8 7 -8 13 1z m-77 -79 c22 12 22 12 2
-8 -21 -21 -36 -13 -34 17 1 11 3 10 6 -2 4 -15 8 -16 26 -7z m22 -26 c-39
-32 -55 -32 -18 0 15 13 33 24 38 24 6 0 -3 -11 -20 -24z m-63 -17 c-7 -7 -12
-8 -12 -2 0 14 12 26 19 19 2 -3 -1 -11 -7 -17z m-31 -41 c-10 -9 -11 -8 -5 6
3 10 9 15 12 12 3 -3 0 -11 -7 -18z m-1183 -184 c5 -16 30 -85 56 -155 l45
-128 -69 0 c-56 0 -70 3 -70 15 0 11 -11 15 -39 15 -25 0 -41 -5 -45 -15 -4
-11 -22 -15 -72 -15 -59 0 -65 2 -59 18 4 9 27 73 51 142 24 69 46 131 49 138
3 8 27 12 74 12 66 0 69 -1 79 -27z m477 2 c29 -28 33 -79 9 -106 -15 -17 -15
-20 5 -45 12 -15 21 -37 21 -50 0 -68 -35 -84 -185 -84 l-115 0 0 155 0 155
120 0 c115 0 122 -1 145 -25z m395 -14 c0 -42 -13 -54 -49 -44 -26 7 -71 -4
-71 -17 0 -6 25 -10 55 -10 l55 0 0 -39 0 -40 -52 -3 c-77 -4 -76 -28 1 -28
l61 0 0 -45 0 -45 -120 0 -120 0 0 155 0 155 120 0 120 0 0 -39z m264 -8 c13
-46 14 -47 24 -23 5 14 11 34 13 45 4 17 13 20 77 23 l73 3 -56 -110 c-42 -85
-55 -121 -55 -156 l0 -45 -65 0 -65 0 0 55 c0 46 -8 71 -50 155 l-50 100 70 0
69 0 15 -47z m426 -108 l0 -155 -65 0 -65 0 0 155 0 155 65 0 65 0 0 -155z
m270 105 c19 -27 37 -50 40 -50 3 0 3 22 2 50 l-4 50 66 0 66 0 0 -155 0 -155
-53 0 -54 0 -39 57 -39 57 -3 -57 -3 -57 -59 0 -60 0 0 155 0 155 53 0 c51 0
53 -1 87 -50z m430 -105 l0 -155 -65 0 -65 0 0 155 0 155 65 0 65 0 0 -155z
m-1919 -352 c13 -16 12 -17 -3 -4 -10 7 -18 15 -18 17 0 8 8 3 21 -13z"/>
<path d="M1400 1890 c0 -8 -3 -25 -6 -37 -5 -19 -2 -23 15 -23 18 0 20 4 15
28 -8 32 -24 53 -24 32z"/>
<path d="M1820 1929 c0 -15 5 -20 22 -17 34 5 37 38 4 38 -20 0 -26 -5 -26
-21z"/>
<path d="M1820 1820 c0 -15 7 -20 25 -20 18 0 25 5 25 20 0 15 -7 20 -25 20
-18 0 -25 -5 -25 -20z"/>
</g>
</svg>
