<?xml version="1.0" standalone="no"?>
<!DOCTYPE svg PUBLIC "-//W3C//DTD SVG 20010904//EN"
 "http://www.w3.org/TR/2001/REC-SVG-20010904/DTD/svg10.dtd">
<svg version="1.0" xmlns="http://www.w3.org/2000/svg"
 width="500.000000pt" height="500.000000pt" viewBox="0 0 500.000000 500.000000"
 preserveAspectRatio="xMidYMid meet">

<g transform="translate(0.000000,500.000000) scale(0.100000,-0.100000)"
fill="#000000" stroke="none">
<path d="M2525 3355 c-67 -20 -133 -65 -121 -83 3 -5 0 -14 -6 -22 -8 -12 -9
-12 -4 3 9 28 -10 11 -23 -22 -10 -24 -20 -30 -57 -36 -68 -10 -192 -77 -253
-137 -124 -121 -177 -247 -175 -419 1 -153 8 -157 75 -46 31 50 80 130 109
177 29 47 84 137 122 200 101 165 94 158 100 113 3 -21 16 -65 30 -98 l24 -60
-85 -140 c-46 -77 -91 -152 -100 -166 -48 -79 -81 -137 -81 -143 0 -3 127 -7
282 -8 l282 -3 13 -50 c7 -27 13 -62 13 -77 l0 -28 -337 -2 -338 -3 61 -60
c146 -145 378 -194 580 -123 75 26 249 139 236 153 -4 5 -2 5 4 2 7 -4 27 7
45 23 19 16 38 30 43 30 4 0 6 6 3 13 -3 8 6 27 19 43 l25 29 -17 -27 c-25
-42 -3 -33 27 10 54 77 64 128 44 205 -2 4 -3 13 -4 20 -1 9 -3 9 -9 -1 -6 -8
-9 -3 -9 16 0 15 -9 42 -21 58 -11 16 -25 53 -31 82 -19 92 -93 220 -166 285
-41 37 -140 98 -178 109 -32 10 -40 9 -48 -3 -8 -10 -8 -7 -3 11 4 14 18 38
31 54 13 16 22 35 19 43 -3 8 -2 12 3 9 4 -3 16 3 26 14 17 19 17 19 -35 0
-29 -10 -63 -26 -77 -35 -24 -16 -24 -17 -7 -36 9 -10 13 -19 8 -20 -5 0 0 -4
11 -9 l20 -9 -20 0 c-17 -1 -18 -3 -5 -12 13 -9 13 -10 0 -6 -8 2 -14 10 -12
16 1 6 -2 11 -8 11 -5 0 -10 -5 -10 -12 0 -6 -3 -8 -7 -4 -5 4 0 13 10 21 15
11 16 13 2 19 -8 3 -15 1 -15 -4 0 -6 -11 -10 -24 -10 -42 0 -37 32 10 79 24
24 44 39 44 35 0 -5 4 -4 8 2 4 7 30 19 57 27 l50 15 -55 0 c-30 -1 -73 -6
-95 -13z m50 -5 c-27 -12 -43 -12 -25 0 8 5 22 9 30 9 10 0 8 -3 -5 -9z m-71
-36 c6 -15 4 -15 -11 -3 -10 7 -20 15 -22 16 -2 2 3 3 11 3 9 0 19 -7 22 -16z
m-41 -8 c4 -11 1 -13 -10 -9 -12 5 -15 2 -10 -10 4 -11 2 -14 -9 -10 -13 5
-13 8 2 24 21 23 20 23 27 5z m172 -36 c3 -6 -1 -7 -9 -4 -18 7 -21 14 -7 14
6 0 13 -4 16 -10z m-25 -10 c8 -5 11 -10 5 -10 -5 0 -17 5 -25 10 -8 5 -10 10
-5 10 6 0 17 -5 25 -10z m-200 -80 c0 -14 -5 -18 -17 -13 -11 4 -13 8 -5 11 7
2 10 8 6 13 -3 5 0 9 5 9 6 0 11 -9 11 -20z m-47 -30 c-3 -11 -7 -20 -9 -20
-2 0 -4 9 -4 20 0 11 4 20 9 20 5 0 7 -9 4 -20z m187 10 c0 -5 -2 -10 -4 -10
-3 0 -8 5 -11 10 -3 6 -1 10 4 10 6 0 11 -4 11 -10z m55 -20 c3 -5 1 -10 -4
-10 -6 0 -11 5 -11 10 0 6 2 10 4 10 3 0 8 -4 11 -10z m-28 -32 c-3 -8 -6 -5
-6 6 -1 11 2 17 5 13 3 -3 4 -12 1 -19z m-66 -62 c5 -6 9 -14 9 -20 0 -5 -7
-1 -15 10 -8 10 -14 28 -14 39 l1 20 5 -20 c3 -11 9 -24 14 -29z m172 -6 c-6
-6 -33 30 -33 43 0 5 9 -1 19 -14 11 -13 17 -26 14 -29z m-326 18 c-3 -8 -6
-5 -6 6 -1 11 2 17 5 13 3 -3 4 -12 1 -19z m243 -31 c0 -16 -18 3 -23 25 -6
22 -5 22 8 4 8 -11 15 -24 15 -29z m-102 -28 c-3 -8 -7 -3 -11 10 -4 17 -3 21
5 13 5 -5 8 -16 6 -23z m185 17 c4 -10 1 -13 -9 -9 -7 3 -14 9 -14 14 0 14 17
10 23 -5z m-283 -40 c0 -5 -7 -3 -15 4 -8 7 -12 17 -9 22 7 10 24 -9 24 -26z
m336 22 c4 -7 3 -8 -4 -4 -19 11 -14 -9 9 -38 13 -17 15 -24 6 -20 -17 6 -39
52 -32 65 8 12 12 11 21 -3z m-236 -28 c0 -5 -5 -10 -11 -10 -5 0 -7 5 -4 10
3 6 8 10 11 10 2 0 4 -4 4 -10z m28 -15 c-3 -3 -9 2 -12 12 -6 14 -5 15 5 6 7
-7 10 -15 7 -18z m110 0 c-3 -3 -9 2 -12 12 -6 14 -5 15 5 6 7 -7 10 -15 7
-18z m32 -15 c0 -5 -2 -10 -4 -10 -3 0 -8 5 -11 10 -3 6 -1 10 4 10 6 0 11 -4
11 -10z m-80 -25 c0 -8 -4 -17 -10 -20 -6 -4 -7 1 -3 11 4 12 3 15 -5 10 -8
-5 -10 -2 -6 8 7 18 24 12 24 -9z m-148 -9 c7 4 8 2 4 -4 -13 -22 5 -34 21
-15 13 16 13 16 2 -6 l-12 -25 -18 23 c-11 13 -19 28 -18 35 0 7 2 6 6 -2 2
-6 10 -9 15 -6z m453 -60 c6 -4 1 -4 -10 2 -11 6 -31 23 -45 39 l-25 28 35
-30 c19 -16 40 -34 45 -39z m-281 38 c3 -8 2 -12 -4 -9 -6 3 -10 10 -10 16 0
14 7 11 14 -7z m87 -6 c11 -21 11 -22 -4 -9 -10 7 -17 17 -17 22 0 15 9 10 21
-13z m135 -16 c1 -7 0 -8 -3 -2 -8 17 -25 11 -18 -7 5 -14 3 -15 -6 -6 -13 13
-3 36 14 30 6 -2 12 -9 13 -15z m-161 -64 c16 -24 22 -38 14 -31 -15 12 -53
73 -46 73 2 0 17 -19 32 -42z m83 17 c-3 -3 -9 2 -12 12 -6 14 -5 15 5 6 7 -7
10 -15 7 -18z m185 -23 c24 -25 25 -28 7 -28 -10 0 -17 2 -14 5 2 2 -3 15 -11
28 -20 31 -15 29 18 -5z m-403 -2 c0 -5 -2 -10 -4 -10 -3 0 -8 5 -11 10 -3 6
-1 10 4 10 6 0 11 -4 11 -10z m354 -16 c3 -8 2 -12 -4 -9 -6 3 -10 10 -10 16
0 14 7 11 14 -7z m-223 -11 c13 -16 12 -17 -3 -4 -17 13 -22 21 -14 21 2 0 10
-8 17 -17z m-111 -47 c0 -5 -9 3 -20 17 -11 14 -20 29 -20 34 1 10 39 -39 40
-51z m224 38 c3 -8 2 -12 -4 -9 -6 3 -10 10 -10 16 0 14 7 11 14 -7z m-134
-29 c0 -5 -5 -3 -10 5 -5 8 -10 20 -10 25 0 6 5 3 10 -5 5 -8 10 -19 10 -25z
m60 15 c0 -5 -2 -10 -4 -10 -3 0 -8 5 -11 10 -3 6 -1 10 4 10 6 0 11 -4 11
-10z m272 -4 c7 4 8 2 4 -5 -9 -13 -26 -5 -25 12 0 9 2 8 6 -1 2 -6 10 -9 15
-6z m-362 -12 c0 -8 -4 -12 -10 -9 -5 3 -10 10 -10 16 0 5 5 9 10 9 6 0 10 -7
10 -16z m120 -29 c0 -5 -5 -3 -10 5 -5 8 -10 20 -10 25 0 6 5 3 10 -5 5 -8 10
-19 10 -25z m263 5 c3 -11 1 -18 -4 -14 -5 3 -9 12 -9 20 0 20 7 17 13 -6z
m-380 -61 c4 -16 3 -18 -9 -8 -16 13 -19 29 -5 29 5 0 11 -9 14 -21z m147 -24
c14 -19 14 -19 -2 -6 -10 7 -18 18 -18 24 0 6 1 8 3 6 1 -2 9 -13 17 -24z m94
9 c3 -8 2 -12 -4 -9 -6 3 -10 10 -10 16 0 14 7 11 14 -7z m-204 -30 c0 -8 -19
-13 -24 -6 -3 5 1 9 9 9 8 0 15 -2 15 -3z m387 -26 c-3 -7 -5 -2 -5 12 0 14 2
19 5 13 2 -7 2 -19 0 -25z m-102 2 c3 -5 1 -10 -4 -10 -6 0 -11 5 -11 10 0 6
2 10 4 10 3 0 8 -4 11 -10z m-116 -40 c0 -10 -3 -8 -9 5 -8 19 -9 19 -9 1 -1
-11 -4 -17 -7 -13 -3 3 -3 15 1 28 6 17 9 19 16 8 5 -8 8 -21 8 -29z m238 -12
c-3 -7 -5 -2 -5 12 0 14 2 19 5 13 2 -7 2 -19 0 -25z m-367 -8 c0 7 3 11 6 7
3 -3 2 -13 -3 -22 -8 -13 -11 -12 -21 12 -11 26 -11 27 3 9 10 -13 15 -15 15
-6z m240 -27 c-11 -17 -11 -17 -6 0 3 10 6 24 7 30 0 9 2 9 5 0 3 -7 0 -20 -6
-30z m-83 -60 c0 -28 -1 -32 -7 -18 l-7 20 -5 -20 c-3 -12 -5 -7 -4 12 0 17 4
29 9 26 4 -2 7 1 7 6 0 6 1 11 3 11 2 0 3 -17 4 -37z m122 -18 c0 -5 -6 1 -14
15 -8 14 -14 19 -15 13 0 -7 -5 -13 -10 -13 -6 0 -5 8 2 20 12 19 13 19 25 -3
7 -12 12 -26 12 -32z m44 28 c-7 -2 -19 -2 -25 0 -7 3 -2 5 12 5 14 0 19 -2
13 -5z m-106 -75 c-3 -8 -6 -5 -6 6 -1 11 2 17 5 13 3 -3 4 -12 1 -19z m-127
2 c0 -5 -4 -10 -10 -10 -5 0 -10 5 -10 10 0 6 5 10 10 10 6 0 10 -4 10 -10z
m36 -48 c-17 -16 -18 -16 -5 5 7 12 15 20 18 17 3 -2 -3 -12 -13 -22z m81 6
c-3 -8 -6 -5 -6 6 -1 11 2 17 5 13 3 -3 4 -12 1 -19z m-137 -42 c0 -2 -8 -10
-17 -17 -16 -13 -17 -12 -4 4 13 16 21 21 21 13z m30 1 c0 -2 -10 -12 -22 -23
l-23 -19 19 23 c18 21 26 27 26 19z m-94 -51 c0 -15 -5 -21 -10 -16 -5 5 -6
16 -3 24 9 23 15 19 13 -8z m36 10 c7 4 8 2 4 -4 -11 -18 -26 -14 -25 6 0 10
3 12 6 4 2 -6 10 -9 15 -6z"/>
<path d="M2610 3200 c0 -5 5 -10 10 -10 6 0 10 5 10 10 0 6 -4 10 -10 10 -5 0
-10 -4 -10 -10z"/>
</g>
</svg>
