<?xml version="1.0" standalone="no"?>
<!DOCTYPE svg PUBLIC "-//W3C//DTD SVG 20010904//EN"
 "http://www.w3.org/TR/2001/REC-SVG-20010904/DTD/svg10.dtd">
<svg version="1.0" xmlns="http://www.w3.org/2000/svg"
 width="500.000000pt" height="500.000000pt" viewBox="0 0 500.000000 500.000000"
 preserveAspectRatio="xMidYMid meet">

<g transform="translate(0.000000,500.000000) scale(0.100000,-0.100000)"
fill="#000000" stroke="none">
<path d="M0 2500 l0 -2500 2500 0 2500 0 0 2500 0 2500 -2500 0 -2500 0 0
-2500z m2410 685 c-7 -8 -17 -12 -22 -9 -6 4 -5 10 3 15 22 14 33 10 19 -6z
m57 -27 c-15 -5 -24 -14 -21 -20 4 -6 10 -5 15 3 4 7 10 11 13 8 3 -2 1 -11
-4 -19 -8 -13 -13 -11 -32 9 -13 13 -18 21 -11 17 6 -3 14 -2 18 4 3 5 16 10
28 9 19 0 19 -2 -6 -11z m-91 -40 l19 -23 -25 20 c-14 11 -27 21 -29 22 -2 2
0 3 6 3 5 0 18 -10 29 -22z m163 -12 c-3 -3 -11 5 -18 17 -13 21 -12 21 5 5
10 -10 16 -20 13 -22z m-46 -9 c3 -8 -3 -13 -17 -14 -11 0 -15 1 -8 4 6 3 10
9 6 14 -3 5 -1 9 4 9 6 0 12 -6 15 -13z m-113 -7 c8 -5 11 -10 5 -10 -5 0 -17
5 -25 10 -8 5 -10 10 -5 10 6 0 17 -5 25 -10z m-814 -41 l22 -21 -48 -63
c-141 -186 -141 -444 0 -630 l48 -63 -24 -23 -25 -23 -29 29 c-16 17 -45 57
-65 90 -99 166 -109 376 -27 556 27 60 104 169 119 169 4 0 17 -9 29 -21z
m1869 -21 c20 -24 52 -74 71 -113 103 -210 77 -455 -70 -642 l-40 -53 -28 27
-27 26 38 46 c154 185 156 471 5 658 -39 48 -40 50 -17 75 23 25 27 24 68 -24z
m-585 -387 c116 -189 214 -350 217 -357 4 -12 -59 -14 -391 -14 l-396 0 0 36
c0 20 5 54 12 75 l11 39 253 2 254 3 -120 197 -121 196 26 75 c14 42 25 84 25
93 0 11 3 14 9 9 5 -6 105 -165 221 -354z m-536 331 c3 -5 -1 -9 -9 -9 -8 0
-12 4 -9 9 3 4 7 8 9 8 2 0 6 -4 9 -8z m29 -7 c-3 -9 -8 -14 -10 -11 -3 3 -2
9 2 15 9 16 15 13 8 -4z m23 -22 c-8 -15 -15 -25 -16 -21 0 12 23 58 27 54 3
-2 -2 -17 -11 -33z m1008 -74 c46 -91 62 -190 47 -283 -13 -78 -56 -173 -101
-226 l-30 -34 -26 25 -26 26 35 46 c52 68 77 144 77 231 0 90 -20 159 -65 227
l-36 52 22 24 23 23 23 -22 c13 -12 39 -52 57 -89z m-1712 14 c-51 -63 -75
-129 -80 -219 -5 -98 13 -170 63 -244 19 -29 35 -53 35 -54 0 -2 -9 -13 -20
-26 l-20 -23 -26 24 c-14 13 -42 57 -62 98 -37 74 -37 76 -37 201 0 122 1 127
34 194 18 37 47 83 64 102 l30 35 25 -24 25 -25 -31 -39z m795 65 c-3 -8 -6
-5 -6 6 -1 11 2 17 5 13 3 -3 4 -12 1 -19z m-15 -6 c3 -11 0 -19 -7 -19 -7 0
-10 8 -7 19 2 10 6 18 7 18 1 0 5 -8 7 -18z m-140 -1 c8 12 9 12 6 0 -2 -8
-14 -15 -26 -16 -18 -1 -20 1 -10 13 9 10 13 11 16 2 3 -9 7 -9 14 1z m229
-78 c-12 -20 -14 -14 -5 12 4 9 9 14 11 11 3 -2 0 -13 -6 -23z m-770 -72 c-66
-84 -61 -219 11 -298 20 -21 20 -21 -1 -42 -26 -26 -33 -26 -58 2 -64 68 -89
193 -58 288 10 30 31 74 48 97 l29 44 28 -27 29 -28 -28 -36z m1501 -10 c26
-56 34 -146 19 -208 -7 -26 -28 -72 -48 -101 l-36 -53 -23 22 c-30 28 -30 33
0 72 14 18 31 54 37 80 17 60 1 145 -36 193 -31 40 -31 42 -3 72 l23 23 23
-28 c13 -15 33 -48 44 -72z m-863 56 c0 -8 -2 -8 -6 1 -4 10 -8 10 -21 0 -15
-12 -16 -11 -3 4 14 19 32 15 30 -5z m-145 -3 c8 -21 8 -24 -3 -24 -5 0 -11 9
-14 20 -6 24 8 27 17 4z m39 -9 c-3 -9 -8 -14 -10 -11 -3 3 -2 9 2 15 9 16 15
13 8 -4z m217 -5 c-6 -11 -13 -20 -16 -20 -2 0 0 9 6 20 6 11 13 20 16 20 2 0
0 -9 -6 -20z m-110 -25 c0 -12 -19 -12 -23 0 -4 9 -1 12 9 8 7 -3 14 -7 14 -8z
m-251 -13 c7 -14 6 -18 -10 -19 -10 -1 -21 2 -24 8 -3 5 1 6 9 3 9 -3 16 -2
16 4 0 6 -6 13 -12 15 -10 4 -10 6 -1 6 7 1 17 -7 22 -17z m121 8 c0 -5 -5
-10 -11 -10 -5 0 -7 5 -4 10 3 6 8 10 11 10 2 0 4 -4 4 -10z m50 -30 c-6 -11
-8 -25 -5 -30 3 -5 1 -11 -5 -15 -5 -3 -10 -11 -10 -16 0 -6 5 -7 12 -3 7 4 8
3 4 -4 -11 -19 -32 -14 -32 7 0 11 5 19 11 18 5 -1 9 4 7 11 -2 13 15 52 24
52 2 0 0 -9 -6 -20z m95 -11 c-4 -5 1 -20 12 -31 18 -21 17 -21 -1 -15 -13 5
-17 3 -13 -7 3 -7 -3 -23 -14 -34 -10 -12 -19 -26 -19 -32 0 -5 -4 -10 -10
-10 -16 0 -12 14 12 40 13 13 23 38 24 55 2 39 3 45 10 45 3 0 2 -5 -1 -11z
m31 -9 c0 -12 -4 -16 -9 -11 -5 5 -6 14 -3 20 10 15 12 14 12 -9z m-270 -15
c0 -14 -4 -25 -8 -25 -10 0 -10 13 -2 34 9 23 12 20 10 -9z m38 -15 c-5 -5
-10 3 -11 18 -1 22 0 24 9 8 6 -10 6 -22 2 -26z m-138 -17 c11 -19 13 -24 3
-17 -8 5 -24 9 -36 8 -12 0 -20 2 -17 7 2 4 12 5 21 2 12 -5 15 -2 10 10 -9
25 -2 21 19 -10z m114 -11 c0 -5 -6 -16 -13 -26 -12 -16 -13 -16 -13 3 0 11 4
17 8 15 4 -3 8 0 8 5 0 6 2 11 5 11 3 0 5 -4 5 -8z m-199 -45 c-10 -9 -11 -8
-5 6 3 10 9 15 12 12 3 -3 0 -11 -7 -18z m100 0 c-10 -9 -11 -8 -5 6 3 10 9
15 12 12 3 -3 0 -11 -7 -18z m166 7 c-3 -3 -12 -4 -19 -1 -8 3 -5 6 6 6 11 1
17 -2 13 -5z m-137 -24 c0 -5 -5 -10 -11 -10 -5 0 -7 5 -4 10 3 6 8 10 11 10
2 0 4 -4 4 -10z m24 -15 c-9 -14 -18 -25 -20 -25 -7 0 10 35 20 42 17 12 17 9
0 -17z m-94 5 c0 -5 -7 -10 -16 -10 -8 0 -12 5 -9 10 3 6 10 10 16 10 5 0 9
-4 9 -10z m298 -20 c-8 -13 -15 -16 -19 -8 -10 15 -2 28 17 28 12 0 12 -4 2
-20z m-108 6 c0 -3 -4 -8 -10 -11 -5 -3 -10 -1 -10 4 0 6 5 11 10 11 6 0 10
-2 10 -4z m-265 -33 c-3 -16 -11 -32 -16 -38 -7 -6 -6 0 0 18 6 15 7 27 1 27
-5 0 -12 -9 -15 -21 -4 -11 -9 -18 -11 -16 -9 9 20 57 34 57 10 0 12 -7 7 -27z
m116 -10 c-12 -20 -14 -14 -5 12 4 9 9 14 11 11 3 -2 0 -13 -6 -23z m166 -75
c-3 -8 -6 -5 -6 6 -1 11 2 17 5 13 3 -3 4 -12 1 -19z m-115 -16 c3 -11 0 -19
-7 -19 -7 0 -10 8 -7 19 2 10 6 18 7 18 1 0 5 -8 7 -18z m-169 -34 c4 -12 4
-24 1 -27 -6 -7 -24 20 -24 37 0 21 17 13 23 -10z m-26 -40 c-3 -8 -6 -5 -6 6
-1 11 2 17 5 13 3 -3 4 -12 1 -19z m110 0 c-3 -8 -6 -5 -6 6 -1 11 2 17 5 13
3 -3 4 -12 1 -19z m87 -18 c4 -25 3 -31 -4 -20 -5 8 -10 26 -10 39 0 32 6 24
14 -19z m-148 -24 c-1 -18 -4 -22 -13 -14 -10 8 -10 13 0 23 7 8 13 14 13 15
1 0 1 -11 0 -24z m64 -7 c0 -21 -34 -27 -46 -8 -4 8 0 9 15 4 15 -5 21 -2 21
10 0 10 -5 13 -12 9 -7 -4 -8 -3 -4 5 10 16 26 4 26 -20z m-20 -44 c11 -13 15
-13 22 -3 7 10 8 10 5 -2 -2 -8 5 -26 17 -40 l21 -25 -25 20 c-45 36 -73 65
-63 65 6 0 16 -7 23 -15z m113 -20 c-3 -9 -8 -14 -10 -11 -3 3 -2 9 2 15 9 16
15 13 8 -4z m-226 -305 c44 -28 32 -83 -24 -111 l-31 -16 48 -20 c37 -16 51
-28 56 -48 9 -38 -11 -74 -51 -91 -41 -17 -262 -20 -232 -3 15 9 17 27 17 154
0 131 -2 145 -17 147 -10 1 11 4 47 7 81 7 158 -1 187 -19z m421 -30 c2 -30
-1 -50 -7 -50 -6 0 -11 8 -11 19 0 35 -38 71 -76 71 l-34 0 0 -70 c0 -47 4
-70 12 -70 17 0 48 31 48 47 0 8 5 11 10 8 6 -3 10 -33 10 -66 0 -33 -4 -59
-10 -59 -5 0 -10 6 -10 14 0 14 -36 46 -52 46 -5 0 -8 -32 -8 -70 0 -56 3 -72
16 -77 31 -12 68 11 89 54 11 23 23 42 28 43 4 0 7 -25 7 -55 l0 -55 -137 1
c-76 1 -130 3 -120 6 15 4 17 20 17 154 0 93 -4 149 -10 149 -5 0 -10 3 -10 8
0 4 55 6 122 5 l123 -2 3 -51z m272 48 c0 -3 -6 -8 -12 -11 -9 -3 -5 -21 16
-65 16 -34 32 -62 35 -62 10 0 41 78 41 100 0 12 -7 23 -15 26 -29 11 -15 21
30 20 48 -1 54 -6 29 -27 -9 -7 -29 -39 -45 -71 -24 -48 -29 -69 -29 -132 0
-61 3 -77 18 -85 12 -8 -6 -10 -68 -10 -47 0 -78 3 -70 6 23 9 30 24 30 71 0
42 -46 149 -91 214 -11 14 -19 28 -19 30 0 1 34 3 75 3 41 0 75 -3 75 -7z
m393 -5 c-10 -4 -13 -43 -13 -153 0 -133 2 -149 18 -153 9 -3 -21 -5 -68 -6
-62 0 -80 2 -67 10 15 9 17 27 17 154 0 131 -2 145 -17 147 -10 1 16 4 57 7
72 6 99 3 73 -6z m427 -8 c-6 -8 -11 -71 -11 -159 0 -131 -1 -146 -17 -146 -9
0 -63 48 -119 107 l-103 108 3 -95 c2 -90 3 -95 27 -107 24 -12 22 -13 -23
-13 -48 0 -48 0 -33 22 13 18 16 51 16 150 0 110 -2 128 -17 137 -14 8 -9 10
25 11 41 0 46 -4 132 -92 l89 -93 1 83 c0 75 -2 84 -20 89 -32 9 -14 19 25 15
27 -3 33 -7 25 -17z m278 8 c-16 -4 -18 -20 -18 -148 0 -127 2 -145 18 -154
12 -8 -6 -10 -68 -10 -47 1 -77 3 -67 6 15 4 17 20 17 154 0 98 -4 149 -11
149 -5 0 -8 3 -6 8 3 4 38 5 79 3 40 -2 65 -6 56 -8z m-2232 -113 c24 -63 52
-131 61 -150 10 -19 19 -38 21 -42 2 -5 -32 -8 -75 -8 -55 1 -73 3 -61 10 15
9 15 14 0 60 l-16 50 -47 0 c-44 0 -48 -2 -58 -31 -16 -47 -14 -65 12 -77 19
-9 16 -11 -24 -11 l-46 -1 26 53 c15 28 44 101 66 160 39 105 41 108 68 105
27 -3 32 -11 73 -118z m365 -423 c-10 -9 -11 -8 -5 6 3 10 9 15 12 12 3 -3 0
-11 -7 -18z"/>
<path d="M1806 1964 c-10 -25 -7 -112 4 -119 18 -11 50 34 50 69 0 47 -9 66
-30 66 -10 0 -21 -7 -24 -16z"/>
<path d="M1800 1771 c0 -71 6 -91 30 -91 28 0 50 33 50 77 0 44 -23 73 -58 73
-20 0 -22 -5 -22 -59z"/>
<path d="M1346 1857 c-9 -23 -16 -46 -16 -50 0 -4 18 -7 40 -7 22 0 40 1 40 3
0 15 -34 97 -40 97 -4 0 -15 -19 -24 -43z"/>
</g>
</svg>
