<?xml version="1.0" standalone="no"?>
<!DOCTYPE svg PUBLIC "-//W3C//DTD SVG 20010904//EN"
 "http://www.w3.org/TR/2001/REC-SVG-20010904/DTD/svg10.dtd">
<svg version="1.0" xmlns="http://www.w3.org/2000/svg"
 width="500.000000pt" height="500.000000pt" viewBox="0 0 500.000000 500.000000"
 preserveAspectRatio="xMidYMid meet">

<g transform="translate(0.000000,500.000000) scale(0.100000,-0.100000)"
fill="#000000" stroke="none">
<path d="M0 2500 l0 -2500 2500 0 2500 0 0 2500 0 2500 -2500 0 -2500 0 0
-2500z m2610 851 c-8 -5 -26 -11 -40 -15 -21 -5 -20 -3 5 9 32 15 60 20 35 6z
m-83 -7 c-3 -3 -12 -4 -19 -1 -8 3 -5 6 6 6 11 1 17 -2 13 -5z m-53 -19 c-4
-8 -11 -12 -16 -9 -6 4 -5 10 3 15 19 12 19 11 13 -6z m206 -20 c-7 -8 -20
-15 -29 -15 -11 1 -8 5 9 15 32 18 35 18 20 0z m-240 1 c0 -2 -8 -10 -17 -17
-16 -13 -17 -12 -4 4 13 16 21 21 21 13z m61 -20 c15 9 10 -3 -8 -17 -11 -10
-14 -10 -9 -1 4 7 2 12 -4 12 -6 0 -8 5 -4 12 6 9 9 9 12 0 2 -7 8 -10 13 -6z
m114 -6 c-27 -12 -43 -12 -25 0 8 5 22 9 30 9 10 0 8 -3 -5 -9z m-211 -19 c3
-5 -1 -11 -9 -14 -9 -4 -12 -1 -8 9 6 16 10 17 17 5z m153 -7 c-3 -4 -2 -15 3
-25 6 -10 6 -20 1 -23 -5 -3 -11 5 -13 19 -5 23 -1 35 10 35 3 0 2 -3 -1 -6z
m-117 -8 c0 -3 -4 -8 -10 -11 -5 -3 -10 -1 -10 4 0 6 5 11 10 11 6 0 10 -2 10
-4z m97 -38 c-3 -8 -6 -5 -6 6 -1 11 2 17 5 13 3 -3 4 -12 1 -19z m-180 -55
c-3 -10 -5 -4 -5 12 0 17 2 24 5 18 2 -7 2 -21 0 -30z m248 -13 c3 -5 1 -10
-4 -10 -6 0 -11 5 -11 10 0 6 2 10 4 10 3 0 8 -4 11 -10z m-28 -32 c-3 -8 -6
-5 -6 6 -1 11 2 17 5 13 3 -3 4 -12 1 -19z m-255 -126 l24 -58 -84 -140 c-47
-76 -92 -151 -101 -165 -46 -76 -81 -137 -81 -143 0 -3 127 -7 282 -8 l282 -3
13 -50 c7 -27 13 -62 13 -77 l0 -28 -441 0 c-349 0 -439 3 -433 13 4 6 50 82
102 167 52 85 112 182 132 215 20 33 55 89 77 125 22 36 71 116 109 178 l69
113 7 -40 c4 -22 17 -66 30 -99z m35 76 c-3 -7 -5 -2 -5 12 0 14 2 19 5 13 2
-7 2 -19 0 -25z m154 -12 c5 -6 9 -14 9 -20 0 -5 -7 -1 -15 10 -8 10 -14 28
-14 39 l1 20 5 -20 c3 -11 9 -24 14 -29z m-949 -44 c-165 -205 -175 -470 -25
-673 45 -62 45 -62 25 -82 -11 -10 -24 -17 -30 -13 -27 17 -107 152 -132 227
-48 138 -41 301 20 434 24 54 65 116 99 153 l22 22 21 -20 22 -20 -22 -28z
m1038 25 c0 -16 -18 3 -23 25 -6 22 -5 22 8 4 8 -11 15 -24 15 -29z m95 7 c9
-15 12 -23 6 -20 -11 7 -35 46 -28 46 3 0 12 -12 22 -26z m733 -6 c48 -57 82
-119 109 -196 35 -103 37 -243 5 -347 -23 -75 -84 -186 -126 -232 l-27 -28
-18 24 c-19 25 -19 25 20 76 94 124 130 284 98 437 -14 68 -69 183 -108 227
-29 32 -30 36 -14 53 22 25 30 23 61 -14z m-934 -28 c-6 -6 -10 -3 -10 10 0
13 4 16 10 10 7 -7 7 -13 0 -20z m181 20 c3 -5 1 -10 -4 -10 -6 0 -11 5 -11
10 0 6 2 10 4 10 3 0 8 -4 11 -10z m-275 -43 c0 -5 -4 -5 -10 -2 -5 3 -10 14
-10 23 0 15 2 15 10 2 5 -8 10 -19 10 -23z m128 -22 c-3 -3 -9 2 -12 12 -6 14
-5 15 5 6 7 -7 10 -15 7 -18z m793 -7 c99 -115 128 -333 63 -473 -15 -33 -43
-79 -62 -103 l-35 -43 -21 21 c-17 17 -19 23 -8 38 74 104 97 170 96 272 0 86
-21 157 -65 223 -26 40 -28 48 -17 66 16 27 25 26 49 -1z m-1653 -4 l22 -15
-35 -46 c-103 -135 -107 -329 -10 -473 31 -46 32 -50 16 -64 -10 -9 -21 -16
-26 -16 -15 0 -47 46 -82 119 -69 143 -55 311 38 450 22 33 44 61 48 61 3 0
17 -7 29 -16z m1142 -22 c0 -1 -9 2 -20 8 -11 6 -20 15 -20 20 0 6 9 2 20 -7
11 -10 20 -19 20 -21z m-140 18 c0 -5 -2 -10 -4 -10 -3 0 -8 5 -11 10 -3 6 -1
10 4 10 6 0 11 -4 11 -10z m80 0 c0 -5 -2 -10 -4 -10 -3 0 -8 5 -11 10 -3 6
-1 10 4 10 6 0 11 -4 11 -10z m-145 -50 l20 -25 -22 19 c-16 13 -23 15 -23 6
0 -7 -2 -11 -5 -8 -3 3 -3 13 1 22 4 9 7 16 8 14 1 -2 10 -14 21 -28z m103
-25 c-3 -4 -16 9 -28 27 l-23 33 28 -27 c16 -15 26 -30 23 -33z m-263 19 c9
-15 12 -23 6 -20 -11 7 -35 46 -28 46 3 0 12 -12 22 -26z m411 -6 l29 -33 -32
29 c-31 28 -38 36 -30 36 2 0 16 -15 33 -32z m-20 -16 c1 -7 0 -8 -3 -2 -8 17
-25 11 -18 -7 5 -14 3 -15 -6 -6 -13 13 -3 36 14 30 6 -2 12 -9 13 -15z
m-1072 -11 c16 -17 15 -21 -16 -71 -30 -48 -33 -61 -33 -130 0 -69 3 -82 33
-130 31 -50 32 -54 16 -71 -9 -11 -20 -19 -24 -19 -17 0 -72 95 -86 150 -22
87 -2 186 52 257 29 38 35 40 58 14z m836 8 c0 -6 7 -8 18 -4 14 5 15 4 4 -6
-10 -11 -15 -10 -29 4 -11 11 -13 17 -5 17 7 0 12 -5 12 -11z m637 -44 c37
-56 58 -140 49 -202 -6 -44 -40 -119 -74 -161 l-18 -23 -23 21 c-22 18 -23 21
-8 38 73 80 73 244 1 324 -14 15 -14 18 3 36 25 27 33 23 70 -33z m-562 -17
c16 -24 22 -38 14 -31 -15 12 -53 73 -46 73 2 0 17 -19 32 -42z m83 17 c-3 -3
-9 2 -12 12 -6 14 -5 15 5 6 7 -7 10 -15 7 -18z m185 -23 c24 -25 25 -28 7
-28 -10 0 -17 2 -14 5 2 2 -3 15 -11 28 -20 31 -15 29 18 -5z m-49 -18 c3 -8
2 -12 -4 -9 -6 3 -10 10 -10 16 0 14 7 11 14 -7z m-223 -11 c13 -16 12 -17 -3
-4 -17 13 -22 21 -14 21 2 0 10 -8 17 -17z m-131 -18 c14 -19 14 -19 -2 -6
-10 7 -18 18 -18 24 0 6 1 8 3 6 1 -2 9 -13 17 -24z m244 9 c3 -8 2 -12 -4 -9
-6 3 -10 10 -10 16 0 14 7 11 14 -7z m-134 -29 c0 -5 -5 -3 -10 5 -5 8 -10 20
-10 25 0 6 5 3 10 -5 5 -8 10 -19 10 -25z m60 15 c0 -5 -2 -10 -4 -10 -3 0 -8
5 -11 10 -3 6 -1 10 4 10 6 0 11 -4 11 -10z m-90 -16 c0 -8 -4 -12 -10 -9 -5
3 -10 10 -10 16 0 5 5 9 10 9 6 0 10 -7 10 -16z m400 -38 c0 -5 -9 3 -20 17
-11 14 -20 29 -20 34 1 10 39 -39 40 -51z m-270 -1 c14 -19 14 -19 -2 -6 -10
7 -18 18 -18 24 0 6 1 8 3 6 1 -2 9 -13 17 -24z m104 -1 c3 -8 2 -12 -4 -9 -6
3 -10 10 -10 16 0 14 7 11 14 -7z m-231 -45 c4 -16 3 -18 -9 -8 -16 13 -19 29
-5 29 5 0 11 -9 14 -21z m431 -39 c-5 -5 -9 4 -10 23 -1 30 -1 30 9 9 6 -14 7
-26 1 -32z m-284 15 c14 -19 14 -19 -2 -6 -10 7 -18 18 -18 24 0 6 1 8 3 6 1
-2 9 -13 17 -24z m100 10 c4 3 6 -5 2 -17 -5 -21 -6 -21 -13 -2 -4 10 -8 24
-8 29 1 6 3 4 6 -3 2 -6 8 -10 13 -7z m-210 -31 c0 -8 -19 -13 -24 -6 -3 5 1
9 9 9 8 0 15 -2 15 -3z m285 -24 c3 -5 1 -10 -4 -10 -6 0 -11 5 -11 10 0 6 2
10 4 10 3 0 8 -4 11 -10z m-116 -40 c0 -10 -3 -8 -9 5 -8 19 -9 19 -9 1 -1
-11 -4 -17 -7 -13 -3 3 -3 15 1 28 6 17 9 19 16 8 5 -8 8 -21 8 -29z m-125
-18 c3 7 3 2 0 -11 -4 -16 -2 -21 5 -17 7 5 9 1 5 -9 -8 -19 -7 -19 -28 25
-12 25 -13 30 -2 17 11 -14 15 -15 20 -5z m236 -29 c-11 -17 -11 -17 -6 0 3
10 6 24 7 30 0 9 2 9 5 0 3 -7 0 -20 -6 -30z m-83 -60 c0 -28 -1 -32 -7 -18
l-7 20 -5 -20 c-3 -12 -5 -7 -4 12 0 17 4 29 9 26 4 -2 7 1 7 6 0 6 1 11 3 11
2 0 3 -17 4 -37z m97 13 c-3 -9 -10 -16 -15 -16 -5 0 -4 9 3 20 14 22 21 20
12 -4z m76 0 c0 -3 -4 -8 -10 -11 -5 -3 -10 -1 -10 4 0 6 5 11 10 11 6 0 10
-2 10 -4z m-34 -17 c3 -6 0 -18 -8 -26 -14 -13 -16 -13 -21 1 -4 10 -1 13 9 9
7 -3 14 -1 14 5 0 6 -6 13 -12 15 -10 4 -10 6 -1 6 6 1 15 -4 19 -10z m-11
-57 c-21 -20 -33 -30 -27 -21 7 9 8 20 4 24 -4 5 -2 5 5 1 7 -3 20 4 30 18 10
13 20 22 23 20 2 -3 -13 -21 -35 -42z m-68 -4 c-3 -8 -6 -5 -6 6 -1 11 2 17 5
13 3 -3 4 -12 1 -19z m-127 2 c0 -5 -4 -10 -10 -10 -5 0 -10 5 -10 10 0 6 5
10 10 10 6 0 10 -4 10 -10z m36 -48 c-17 -16 -18 -16 -5 5 7 12 15 20 18 17 3
-2 -3 -12 -13 -22z m-83 -41 c22 12 22 12 2 -8 -19 -19 -36 -13 -34 12 0 6 3
4 6 -2 3 -10 10 -10 26 -2z m22 -26 c-39 -32 -55 -32 -18 0 15 13 33 24 38 24
6 0 -3 -11 -20 -24z m-63 -17 c-7 -7 -12 -8 -12 -2 0 14 12 26 19 19 2 -3 -1
-11 -7 -17z m-31 -41 c-10 -9 -11 -8 -5 6 3 10 9 15 12 12 3 -3 0 -11 -7 -18z
m-1186 -190 c14 -34 95 -266 95 -273 0 -2 -27 -4 -59 -4 -51 0 -61 3 -66 20
-5 16 -15 20 -47 20 -31 0 -41 -4 -45 -20 -5 -17 -14 -20 -64 -20 -33 0 -59 3
-59 8 0 4 23 73 52 155 l52 147 63 0 c63 0 64 -1 78 -33z m481 0 c29 -34 30
-63 5 -97 -19 -24 -19 -24 5 -53 28 -33 30 -49 8 -82 -23 -35 -64 -45 -180
-45 l-104 0 0 156 0 156 121 -4 c118 -3 121 -4 145 -31z m392 -4 l-3 -38 -58
-3 c-49 -3 -58 -6 -55 -20 2 -12 17 -18 53 -22 48 -5 50 -6 50 -35 0 -29 -1
-30 -53 -33 -44 -3 -53 -6 -50 -20 2 -13 16 -18 61 -20 l57 -3 0 -39 0 -40
-114 0 -115 0 -3 151 c-2 83 -1 153 1 155 2 2 56 4 118 4 l114 0 -3 -37z m261
-15 c8 -27 17 -48 20 -48 3 0 13 21 21 48 l15 47 63 3 c34 2 62 0 62 -3 0 -3
-22 -50 -50 -104 -41 -80 -50 -109 -50 -150 l0 -51 -60 0 -60 0 0 50 c0 40
-10 70 -50 150 -27 55 -50 102 -50 105 0 3 28 5 62 3 l62 -3 15 -47z m421
-103 l0 -155 -60 0 -60 0 0 155 0 155 60 0 60 0 0 -155z m276 100 c20 -30 41
-55 45 -55 5 0 9 25 9 55 l0 55 55 0 55 0 0 -155 0 -155 -44 0 c-43 0 -46 2
-88 62 l-43 61 -3 -61 -3 -62 -59 0 -60 0 0 155 0 155 50 0 c49 0 50 -1 86
-55z m432 -102 l3 -153 -60 0 -60 0 -3 128 c-2 70 -1 140 1 155 3 27 5 28 60
25 l56 -3 3 -152z"/>
<path d="M1393 1870 c-10 -39 -10 -40 17 -40 27 0 27 1 16 35 -17 49 -21 49
-33 5z"/>
<path d="M1820 1935 c0 -20 5 -25 24 -25 25 0 36 15 29 38 -3 6 -16 12 -29 12
-19 0 -24 -5 -24 -25z"/>
<path d="M1818 1845 c-3 -4 -4 -15 -1 -26 8 -28 63 -27 63 1 0 11 -6 20 -14
20 -8 0 -21 2 -28 5 -8 3 -17 3 -20 0z"/>
</g>
</svg>
