<svg xmlns="http://www.w3.org/2000/svg" xmlns:xlink="http://www.w3.org/1999/xlink" width="500" zoomAndPan="magnify" viewBox="0 0 375 374.999991" height="500" preserveAspectRatio="xMidYMid meet" version="1.0"><defs><clipPath id="d70c18da5a"><path d="M 257.324219 144.140625 L 276.636719 144.140625 L 276.636719 215.195312 L 257.324219 215.195312 Z M 257.324219 144.140625 " clip-rule="nonzero"/></clipPath><clipPath id="d9f2e6d986"><path d="M 94.390625 144.140625 L 113.710938 144.140625 L 113.710938 215.195312 L 94.390625 215.195312 Z M 94.390625 144.140625 " clip-rule="nonzero"/></clipPath><clipPath id="231d5b3220"><path d="M 140.25 134.28125 L 230.90625 134.28125 L 230.90625 224.941406 L 140.25 224.941406 Z M 140.25 134.28125 " clip-rule="nonzero"/></clipPath><clipPath id="b9a9f27a3e"><path d="M 185.578125 134.28125 C 160.542969 134.28125 140.25 154.578125 140.25 179.613281 C 140.25 204.644531 160.542969 224.941406 185.578125 224.941406 C 210.613281 224.941406 230.90625 204.644531 230.90625 179.613281 C 230.90625 154.578125 210.613281 134.28125 185.578125 134.28125 " clip-rule="nonzero"/></clipPath><clipPath id="5de0f37701"><path d="M 172 156 L 219.542969 156 L 219.542969 201 L 172 201 Z M 172 156 " clip-rule="nonzero"/></clipPath><clipPath id="6957c3e05f"><path d="M 162 144 L 191 144 L 191 208.792969 L 162 208.792969 Z M 162 144 " clip-rule="nonzero"/></clipPath></defs><rect x="-37.5" width="450" fill="#ffffff" y="-37.499999" height="449.999989" fill-opacity="1"/><rect x="-37.5" width="450" fill="#ffffff" y="-37.499999" height="449.999989" fill-opacity="1"/><rect x="-37.5" width="450" fill="#ffffff" y="-37.499999" height="449.999989" fill-opacity="1"/><path fill="#0098da" d="M 147.546875 163.984375 L 155.898438 163.984375 L 166.410156 182.128906 L 166.109375 178.738281 L 166.109375 163.984375 L 174.378906 163.984375 L 174.378906 195.445312 L 165.886719 195.445312 L 155.597656 177.582031 L 155.816406 181.496094 L 155.816406 195.445312 L 147.546875 195.445312 L 147.546875 163.984375 " fill-opacity="1" fill-rule="nonzero"/><path fill="#0098da" d="M 182.210938 163.984375 L 198.945312 163.984375 L 198.945312 170.726562 L 190.484375 170.726562 L 190.484375 176.472656 L 197.933594 176.472656 L 197.933594 183.003906 L 190.484375 183.003906 L 190.484375 195.445312 L 182.210938 195.445312 L 182.210938 163.984375 " fill-opacity="1" fill-rule="nonzero"/><path fill="#0098da" d="M 223.484375 188.019531 L 223.484375 195.492188 C 221.738281 195.980469 220.171875 196.222656 218.789062 196.222656 C 214.003906 196.222656 210.121094 194.671875 207.148438 191.570312 C 204.171875 188.464844 202.683594 184.382812 202.683594 179.324219 C 202.683594 174.628906 204.183594 170.753906 207.1875 167.695312 C 210.191406 164.640625 213.984375 163.113281 218.570312 163.113281 C 220.355469 163.113281 221.992188 163.316406 223.484375 163.726562 L 223.484375 171.21875 C 221.902344 170.761719 220.410156 170.535156 219.007812 170.535156 C 216.859375 170.535156 215.078125 171.382812 213.65625 173.082031 C 212.238281 174.777344 211.527344 176.941406 211.527344 179.5625 C 211.527344 182.390625 212.242188 184.625 213.671875 186.265625 C 215.097656 187.910156 217.003906 188.730469 219.390625 188.730469 C 220.554688 188.730469 221.917969 188.492188 223.484375 188.019531 " fill-opacity="1" fill-rule="nonzero"/><g clip-path="url(#d70c18da5a)"><path fill="#0098da" d="M 270.664062 179.667969 C 270.664062 191.445312 265.953125 202.707031 257.664062 210.957031 L 261.890625 215.195312 C 271.296875 205.824219 276.636719 193.039062 276.636719 179.667969 C 276.636719 166.292969 271.296875 153.511719 261.890625 144.140625 L 257.664062 148.378906 C 265.953125 156.628906 270.664062 167.886719 270.664062 179.667969 " fill-opacity="1" fill-rule="nonzero"/></g><path fill="#0098da" d="M 264.824219 179.730469 C 265.046875 169.441406 261.121094 159.484375 254.019531 152.03125 L 249.792969 156.269531 C 255.746094 162.570312 259.03125 170.949219 258.847656 179.609375 C 258.675781 188.238281 255.113281 196.382812 249.019531 202.289062 L 253.242188 206.523438 C 260.421875 199.527344 264.617188 189.910156 264.824219 179.730469 " fill-opacity="1" fill-rule="nonzero"/><path fill="#0098da" d="M 253.609375 179.667969 C 253.609375 172.460938 250.628906 165.585938 245.417969 160.65625 L 241.191406 164.894531 C 245.289062 168.699219 247.632812 174.050781 247.632812 179.667969 C 247.632812 185.28125 245.289062 190.636719 241.191406 194.441406 L 245.417969 198.679688 C 250.628906 193.75 253.609375 186.875 253.609375 179.667969 " fill-opacity="1" fill-rule="nonzero"/><g clip-path="url(#d9f2e6d986)"><path fill="#0098da" d="M 100.367188 179.667969 C 100.367188 167.886719 105.078125 156.628906 113.363281 148.378906 L 109.136719 144.140625 C 99.734375 153.511719 94.390625 166.292969 94.390625 179.667969 C 94.390625 193.039062 99.734375 205.824219 109.136719 215.195312 L 113.363281 210.957031 C 105.078125 202.707031 100.367188 191.445312 100.367188 179.667969 " fill-opacity="1" fill-rule="nonzero"/></g><path fill="#0098da" d="M 106.207031 179.601562 C 105.984375 189.894531 109.910156 199.851562 117.011719 207.300781 L 121.234375 203.066406 C 115.285156 196.765625 112 188.386719 112.179688 179.726562 C 112.355469 171.097656 115.917969 162.953125 122.011719 157.042969 L 117.789062 152.8125 C 110.609375 159.808594 106.414062 169.425781 106.207031 179.601562 " fill-opacity="1" fill-rule="nonzero"/><path fill="#0098da" d="M 117.421875 179.667969 C 117.421875 186.875 120.398438 193.75 125.613281 198.679688 L 129.839844 194.441406 C 125.742188 190.636719 123.398438 185.28125 123.398438 179.667969 C 123.398438 174.050781 125.742188 168.699219 129.839844 164.894531 L 125.613281 160.65625 C 120.398438 165.585938 117.421875 172.460938 117.421875 179.667969 " fill-opacity="1" fill-rule="nonzero"/><g clip-path="url(#231d5b3220)"><g clip-path="url(#b9a9f27a3e)"><path fill="#000000" d="M 140.25 134.28125 L 230.90625 134.28125 L 230.90625 224.941406 L 140.25 224.941406 Z M 140.25 134.28125 " fill-opacity="1" fill-rule="nonzero"/></g></g><g clip-path="url(#5de0f37701)"><path fill="#ffffff" d="M 192.558594 156.5625 L 219.511719 200.492188 L 172.730469 200.492188 C 172.511719 199.324219 172.511719 198.113281 172.675781 196.902344 C 172.894531 195.199219 173.484375 193.453125 174.183594 191.734375 L 203.910156 191.734375 L 189.457031 168.121094 C 191.433594 164.453125 192.863281 160.414062 192.558594 156.5625 Z M 192.558594 156.5625 " fill-opacity="1" fill-rule="nonzero"/></g><g clip-path="url(#6957c3e05f)"><path fill="#0098da" d="M 175.84375 208.792969 C 170.382812 203.953125 167.296875 198.582031 174.816406 185.796875 C 179.523438 177.855469 192.132812 165.179688 190.210938 155.574219 C 189.675781 152.398438 188.195312 150.105469 186.632812 148.539062 C 181.910156 142.792969 171.742188 144.8125 171.742188 144.8125 C 210.234375 154.0625 132.574219 193.507812 175.84375 208.792969 Z M 175.84375 208.792969 " fill-opacity="1" fill-rule="nonzero"/></g><path fill="#0098da" d="M 169.957031 146.515625 L 171.261719 146.820312 C 174.390625 147.574219 179.589844 149.140625 180.578125 152.742188 C 181.332031 155.519531 179.550781 159.242188 178.261719 161.621094 C 175.886719 165.828125 172.796875 169.867188 170.027344 173.828125 C 165.566406 180.054688 158.992188 189.332031 160.476562 197.398438 C 161.105469 200.902344 163.070312 203.625 165.664062 205.742188 C 156.617188 200.667969 147.21875 192.558594 152.363281 182.652344 C 161.296875 165.429688 185.039062 158.902344 169.957031 146.515625 Z M 169.957031 146.515625 " fill-opacity="1" fill-rule="nonzero"/></svg>