<svg xmlns="http://www.w3.org/2000/svg" xmlns:xlink="http://www.w3.org/1999/xlink" width="500" zoomAndPan="magnify" viewBox="0 0 375 374.999991" height="500" preserveAspectRatio="xMidYMid meet" version="1.0"><defs><g/><clipPath id="18d004a110"><path d="M 257.324219 144.140625 L 276.636719 144.140625 L 276.636719 215.195312 L 257.324219 215.195312 Z M 257.324219 144.140625 " clip-rule="nonzero"/></clipPath><clipPath id="69dbd2d460"><path d="M 94.390625 144.140625 L 113.710938 144.140625 L 113.710938 215.195312 L 94.390625 215.195312 Z M 94.390625 144.140625 " clip-rule="nonzero"/></clipPath><clipPath id="07e64b6451"><path d="M 140.25 134.28125 L 230.90625 134.28125 L 230.90625 224.941406 L 140.25 224.941406 Z M 140.25 134.28125 " clip-rule="nonzero"/></clipPath><clipPath id="75bb6dd2d7"><path d="M 185.578125 134.28125 C 160.542969 134.28125 140.25 154.578125 140.25 179.613281 C 140.25 204.644531 160.542969 224.941406 185.578125 224.941406 C 210.613281 224.941406 230.90625 204.644531 230.90625 179.613281 C 230.90625 154.578125 210.613281 134.28125 185.578125 134.28125 " clip-rule="nonzero"/></clipPath><clipPath id="df5dd219e8"><path d="M 172 156 L 219.542969 156 L 219.542969 201 L 172 201 Z M 172 156 " clip-rule="nonzero"/></clipPath><clipPath id="c343947c40"><path d="M 162 144 L 191 144 L 191 208.792969 L 162 208.792969 Z M 162 144 " clip-rule="nonzero"/></clipPath></defs><rect x="-37.5" width="450" fill="#ffffff" y="-37.499999" height="449.999989" fill-opacity="1"/><rect x="-37.5" width="450" fill="#ffffff" y="-37.499999" height="449.999989" fill-opacity="1"/><rect x="-37.5" width="450" fill="#ffffff" y="-37.499999" height="449.999989" fill-opacity="1"/><path fill="#0098da" d="M 147.546875 163.984375 L 155.898438 163.984375 L 166.410156 182.128906 L 166.109375 178.738281 L 166.109375 163.984375 L 174.378906 163.984375 L 174.378906 195.445312 L 165.890625 195.445312 L 155.597656 177.582031 L 155.816406 181.496094 L 155.816406 195.445312 L 147.546875 195.445312 L 147.546875 163.984375 " fill-opacity="1" fill-rule="nonzero"/><path fill="#0098da" d="M 182.210938 163.984375 L 198.945312 163.984375 L 198.945312 170.726562 L 190.484375 170.726562 L 190.484375 176.472656 L 197.933594 176.472656 L 197.933594 183.003906 L 190.484375 183.003906 L 190.484375 195.445312 L 182.210938 195.445312 L 182.210938 163.984375 " fill-opacity="1" fill-rule="nonzero"/><path fill="#0098da" d="M 223.484375 188.019531 L 223.484375 195.492188 C 221.738281 195.980469 220.171875 196.222656 218.789062 196.222656 C 214.003906 196.222656 210.121094 194.671875 207.148438 191.570312 C 204.171875 188.464844 202.683594 184.382812 202.683594 179.324219 C 202.683594 174.628906 204.183594 170.753906 207.1875 167.695312 C 210.191406 164.640625 213.984375 163.113281 218.570312 163.113281 C 220.355469 163.113281 221.992188 163.316406 223.484375 163.726562 L 223.484375 171.21875 C 221.902344 170.761719 220.410156 170.535156 219.007812 170.535156 C 216.859375 170.535156 215.078125 171.382812 213.65625 173.082031 C 212.238281 174.777344 211.527344 176.941406 211.527344 179.5625 C 211.527344 182.390625 212.242188 184.625 213.671875 186.265625 C 215.097656 187.910156 217.003906 188.730469 219.390625 188.730469 C 220.554688 188.730469 221.917969 188.492188 223.484375 188.019531 " fill-opacity="1" fill-rule="nonzero"/><g clip-path="url(#18d004a110)"><path fill="#0098da" d="M 270.664062 179.667969 C 270.664062 191.445312 265.953125 202.707031 257.664062 210.957031 L 261.890625 215.195312 C 271.296875 205.824219 276.636719 193.039062 276.636719 179.667969 C 276.636719 166.292969 271.296875 153.511719 261.890625 144.140625 L 257.664062 148.378906 C 265.953125 156.628906 270.664062 167.886719 270.664062 179.667969 " fill-opacity="1" fill-rule="nonzero"/></g><path fill="#0098da" d="M 264.824219 179.730469 C 265.046875 169.441406 261.121094 159.484375 254.019531 152.03125 L 249.792969 156.269531 C 255.746094 162.570312 259.03125 170.949219 258.847656 179.609375 C 258.675781 188.238281 255.113281 196.382812 249.019531 202.289062 L 253.242188 206.523438 C 260.421875 199.527344 264.617188 189.910156 264.824219 179.730469 " fill-opacity="1" fill-rule="nonzero"/><path fill="#0098da" d="M 253.609375 179.667969 C 253.609375 172.460938 250.628906 165.585938 245.417969 160.65625 L 241.191406 164.894531 C 245.289062 168.699219 247.632812 174.050781 247.632812 179.667969 C 247.632812 185.28125 245.289062 190.636719 241.191406 194.441406 L 245.417969 198.679688 C 250.628906 193.75 253.609375 186.875 253.609375 179.667969 " fill-opacity="1" fill-rule="nonzero"/><g clip-path="url(#69dbd2d460)"><path fill="#0098da" d="M 100.367188 179.667969 C 100.367188 167.886719 105.078125 156.628906 113.363281 148.378906 L 109.136719 144.140625 C 99.734375 153.511719 94.390625 166.292969 94.390625 179.667969 C 94.390625 193.039062 99.734375 205.824219 109.136719 215.195312 L 113.363281 210.957031 C 105.078125 202.707031 100.367188 191.445312 100.367188 179.667969 " fill-opacity="1" fill-rule="nonzero"/></g><path fill="#0098da" d="M 106.207031 179.601562 C 105.984375 189.894531 109.910156 199.851562 117.011719 207.300781 L 121.234375 203.066406 C 115.285156 196.765625 112 188.386719 112.179688 179.726562 C 112.355469 171.097656 115.917969 162.953125 122.011719 157.042969 L 117.789062 152.8125 C 110.609375 159.808594 106.414062 169.425781 106.207031 179.601562 " fill-opacity="1" fill-rule="nonzero"/><path fill="#0098da" d="M 117.421875 179.667969 C 117.421875 186.875 120.398438 193.75 125.613281 198.679688 L 129.839844 194.441406 C 125.742188 190.636719 123.398438 185.28125 123.398438 179.667969 C 123.398438 174.050781 125.742188 168.699219 129.839844 164.894531 L 125.613281 160.65625 C 120.398438 165.585938 117.421875 172.460938 117.421875 179.667969 " fill-opacity="1" fill-rule="nonzero"/><g clip-path="url(#07e64b6451)"><g clip-path="url(#75bb6dd2d7)"><path fill="#000000" d="M 140.25 134.28125 L 230.90625 134.28125 L 230.90625 224.941406 L 140.25 224.941406 Z M 140.25 134.28125 " fill-opacity="1" fill-rule="nonzero"/></g></g><g fill="#000000" fill-opacity="1"><g transform="translate(94.203953, 253.732659)"><g><path d="M 22.015625 -2.890625 C 22.316406 -2.160156 22.644531 -1.613281 23 -1.25 C 23.351562 -0.894531 23.703125 -0.707031 24.046875 -0.6875 L 24.046875 0 C 22.398438 -0.0703125 20.3125 -0.109375 17.78125 -0.109375 C 15.164062 -0.109375 13.238281 -0.0703125 12 0 L 12 -0.6875 C 12.875 -0.726562 13.492188 -0.832031 13.859375 -1 C 14.234375 -1.175781 14.421875 -1.484375 14.421875 -1.921875 C 14.421875 -2.335938 14.28125 -2.890625 14 -3.578125 L 11.96875 -9.21875 L 5.015625 -9.21875 L 4.4375 -7.671875 C 3.675781 -5.722656 3.296875 -4.234375 3.296875 -3.203125 C 3.296875 -2.265625 3.5625 -1.617188 4.09375 -1.265625 C 4.625 -0.921875 5.40625 -0.726562 6.4375 -0.6875 L 6.4375 0 C 4.71875 -0.0703125 3.210938 -0.109375 1.921875 -0.109375 C 0.847656 -0.109375 -0.03125 -0.0703125 -0.71875 0 L -0.71875 -0.6875 C -0.144531 -0.78125 0.390625 -1.132812 0.890625 -1.75 C 1.398438 -2.375 1.914062 -3.363281 2.4375 -4.71875 L 10.078125 -24.359375 C 10.816406 -24.316406 11.425781 -24.296875 11.90625 -24.296875 C 12.363281 -24.296875 12.957031 -24.316406 13.6875 -24.359375 Z M 11.734375 -9.90625 L 8.59375 -18.515625 L 5.296875 -9.90625 Z M 11.734375 -9.90625 "/></g></g></g><g fill="#000000" fill-opacity="1"><g transform="translate(124.886769, 253.732659)"><g><path d="M 13.796875 -12.765625 C 16.046875 -12.648438 17.894531 -12.289062 19.34375 -11.6875 C 20.800781 -11.09375 21.863281 -10.351562 22.53125 -9.46875 C 23.195312 -8.59375 23.53125 -7.660156 23.53125 -6.671875 C 23.53125 -4.421875 22.632812 -2.742188 20.84375 -1.640625 C 19.0625 -0.546875 16.519531 0 13.21875 0 C 12.550781 0 11.988281 -0.0078125 11.53125 -0.03125 C 9.96875 -0.0820312 8.441406 -0.109375 6.953125 -0.109375 C 4.265625 -0.109375 2.269531 -0.0703125 0.96875 0 L 0.96875 -0.6875 C 1.695312 -0.726562 2.226562 -0.816406 2.5625 -0.953125 C 2.894531 -1.097656 3.117188 -1.363281 3.234375 -1.75 C 3.347656 -2.144531 3.40625 -2.773438 3.40625 -3.640625 L 3.40625 -20.71875 C 3.40625 -21.582031 3.34375 -22.207031 3.21875 -22.59375 C 3.09375 -22.988281 2.867188 -23.253906 2.546875 -23.390625 C 2.222656 -23.535156 1.695312 -23.628906 0.96875 -23.671875 L 0.96875 -24.359375 C 2.269531 -24.285156 4.238281 -24.25 6.875 -24.25 L 10.84375 -24.296875 C 11.300781 -24.316406 11.828125 -24.328125 12.421875 -24.328125 C 15.453125 -24.328125 17.765625 -23.835938 19.359375 -22.859375 C 20.953125 -21.890625 21.75 -20.578125 21.75 -18.921875 C 21.75 -18.078125 21.445312 -17.222656 20.84375 -16.359375 C 20.25 -15.492188 19.351562 -14.738281 18.15625 -14.09375 C 16.96875 -13.457031 15.515625 -13.035156 13.796875 -12.828125 Z M 12.25 -23.671875 C 11.71875 -23.671875 11.320312 -23.585938 11.0625 -23.421875 C 10.800781 -23.265625 10.625 -22.976562 10.53125 -22.5625 C 10.4375 -22.15625 10.390625 -21.539062 10.390625 -20.71875 L 10.390625 -12.9375 L 11.3125 -12.9375 C 12.550781 -12.9375 13.414062 -13.445312 13.90625 -14.46875 C 14.40625 -15.488281 14.65625 -16.847656 14.65625 -18.546875 C 14.65625 -20.285156 14.460938 -21.570312 14.078125 -22.40625 C 13.703125 -23.25 13.09375 -23.671875 12.25 -23.671875 Z M 12.625 -0.796875 C 15.082031 -0.796875 16.3125 -2.800781 16.3125 -6.8125 C 16.3125 -8.625 15.875 -10 15 -10.9375 C 14.125 -11.882812 12.75 -12.359375 10.875 -12.359375 L 10.390625 -12.359375 L 10.390625 -3.640625 C 10.390625 -2.816406 10.445312 -2.207031 10.5625 -1.8125 C 10.675781 -1.425781 10.882812 -1.160156 11.1875 -1.015625 C 11.5 -0.867188 11.976562 -0.796875 12.625 -0.796875 Z M 12.625 -0.796875 "/></g></g></g><g fill="#000000" fill-opacity="1"><g transform="translate(155.982316, 253.732659)"><g><path d="M 20.640625 -5.78125 C 20.640625 -3.4375 20.722656 -1.507812 20.890625 0 C 19.328125 -0.0703125 16.695312 -0.109375 13 -0.109375 C 7.632812 -0.109375 3.625 -0.0703125 0.96875 0 L 0.96875 -0.6875 C 1.695312 -0.726562 2.226562 -0.816406 2.5625 -0.953125 C 2.894531 -1.097656 3.117188 -1.363281 3.234375 -1.75 C 3.347656 -2.144531 3.40625 -2.773438 3.40625 -3.640625 L 3.40625 -20.71875 C 3.40625 -21.582031 3.34375 -22.207031 3.21875 -22.59375 C 3.09375 -22.988281 2.867188 -23.253906 2.546875 -23.390625 C 2.222656 -23.535156 1.695312 -23.628906 0.96875 -23.671875 L 0.96875 -24.359375 C 3.625 -24.285156 7.632812 -24.25 13 -24.25 C 16.375 -24.25 18.773438 -24.285156 20.203125 -24.359375 C 20.035156 -22.203125 19.953125 -20.273438 19.953125 -18.578125 C 19.953125 -17.523438 19.988281 -16.703125 20.0625 -16.109375 L 19.265625 -16.109375 C 18.847656 -18.765625 18.078125 -20.671875 16.953125 -21.828125 C 15.835938 -22.984375 14.5 -23.5625 12.9375 -23.5625 L 12.484375 -23.5625 C 11.867188 -23.5625 11.414062 -23.507812 11.125 -23.40625 C 10.84375 -23.3125 10.648438 -23.117188 10.546875 -22.828125 C 10.441406 -22.535156 10.390625 -22.0625 10.390625 -21.40625 L 10.390625 -12.59375 L 10.734375 -12.59375 C 11.929688 -12.59375 12.953125 -13.0625 13.796875 -14 C 14.640625 -14.9375 15.175781 -15.984375 15.40625 -17.140625 L 16.203125 -17.140625 C 16.140625 -16.171875 16.109375 -15.09375 16.109375 -13.90625 L 16.109375 -12.25 C 16.109375 -11.082031 16.175781 -9.453125 16.3125 -7.359375 L 15.515625 -7.359375 C 15.304688 -8.671875 14.769531 -9.753906 13.90625 -10.609375 C 13.050781 -11.472656 11.992188 -11.90625 10.734375 -11.90625 L 10.390625 -11.90625 L 10.390625 -2.953125 C 10.390625 -2.296875 10.441406 -1.820312 10.546875 -1.53125 C 10.648438 -1.238281 10.84375 -1.039062 11.125 -0.9375 C 11.414062 -0.84375 11.867188 -0.796875 12.484375 -0.796875 L 13.625 -0.796875 C 14.957031 -0.796875 16.21875 -1.441406 17.40625 -2.734375 C 18.601562 -4.023438 19.453125 -6.097656 19.953125 -8.953125 L 20.75 -8.953125 C 20.675781 -8.117188 20.640625 -7.0625 20.640625 -5.78125 Z M 20.640625 -5.78125 "/></g></g></g><g fill="#000000" fill-opacity="1"><g transform="translate(185.220555, 253.732659)"><g><path d="M 19.234375 -24.296875 C 20.304688 -24.296875 21.1875 -24.328125 21.875 -24.390625 L 21.875 -23.703125 C 20.707031 -23.128906 19.492188 -21.601562 18.234375 -19.125 L 15.03125 -12.796875 L 15.03125 -3.640625 C 15.03125 -2.773438 15.09375 -2.144531 15.21875 -1.75 C 15.34375 -1.363281 15.566406 -1.097656 15.890625 -0.953125 C 16.210938 -0.816406 16.742188 -0.726562 17.484375 -0.6875 L 17.484375 0 C 16.148438 -0.0703125 14.175781 -0.109375 11.5625 -0.109375 C 8.832031 -0.109375 6.847656 -0.0703125 5.609375 0 L 5.609375 -0.6875 C 6.335938 -0.726562 6.867188 -0.816406 7.203125 -0.953125 C 7.535156 -1.097656 7.757812 -1.363281 7.875 -1.75 C 7.988281 -2.144531 8.046875 -2.773438 8.046875 -3.640625 L 8.046875 -9.984375 L 1.6875 -21.75 C 1.320312 -22.414062 0.96875 -22.898438 0.625 -23.203125 C 0.28125 -23.515625 -0.03125 -23.671875 -0.3125 -23.671875 L -0.3125 -24.390625 C 1.113281 -24.253906 2.695312 -24.1875 4.4375 -24.1875 C 6.40625 -24.1875 8.925781 -24.253906 12 -24.390625 L 12 -23.671875 C 11.082031 -23.671875 10.394531 -23.625 9.9375 -23.53125 C 9.476562 -23.4375 9.25 -23.21875 9.25 -22.875 C 9.25 -22.71875 9.296875 -22.546875 9.390625 -22.359375 L 14.3125 -12.9375 L 15.859375 -16.03125 C 16.941406 -18.1875 17.484375 -19.894531 17.484375 -21.15625 C 17.484375 -22.789062 16.5625 -23.640625 14.71875 -23.703125 L 14.71875 -24.390625 C 16.445312 -24.328125 17.953125 -24.296875 19.234375 -24.296875 Z M 19.234375 -24.296875 "/></g></g></g><g fill="#000000" fill-opacity="1"><g transform="translate(214.252434, 253.732659)"><g><path d="M 12.828125 -23.671875 C 12.097656 -23.628906 11.566406 -23.535156 11.234375 -23.390625 C 10.898438 -23.253906 10.675781 -22.988281 10.5625 -22.59375 C 10.445312 -22.207031 10.390625 -21.582031 10.390625 -20.71875 L 10.390625 -3.640625 C 10.390625 -2.773438 10.453125 -2.144531 10.578125 -1.75 C 10.703125 -1.363281 10.925781 -1.097656 11.25 -0.953125 C 11.570312 -0.816406 12.097656 -0.726562 12.828125 -0.6875 L 12.828125 0 C 11.503906 -0.0703125 9.59375 -0.109375 7.09375 -0.109375 C 4.3125 -0.109375 2.269531 -0.0703125 0.96875 0 L 0.96875 -0.6875 C 1.695312 -0.726562 2.226562 -0.816406 2.5625 -0.953125 C 2.894531 -1.097656 3.117188 -1.363281 3.234375 -1.75 C 3.347656 -2.144531 3.40625 -2.773438 3.40625 -3.640625 L 3.40625 -20.71875 C 3.40625 -21.582031 3.34375 -22.207031 3.21875 -22.59375 C 3.09375 -22.988281 2.867188 -23.253906 2.546875 -23.390625 C 2.222656 -23.535156 1.695312 -23.628906 0.96875 -23.671875 L 0.96875 -24.359375 C 2.269531 -24.285156 4.3125 -24.25 7.09375 -24.25 C 9.5625 -24.25 11.472656 -24.285156 12.828125 -24.359375 Z M 12.828125 -23.671875 "/></g></g></g><g fill="#000000" fill-opacity="1"><g transform="translate(234.926448, 253.732659)"><g><path d="M 24.359375 -23.671875 C 23.648438 -23.515625 23.125 -23.269531 22.78125 -22.9375 C 22.4375 -22.601562 22.207031 -22.09375 22.09375 -21.40625 C 21.976562 -20.71875 21.921875 -19.679688 21.921875 -18.296875 L 21.921875 0 C 21.460938 -0.0390625 21.082031 -0.0625 20.78125 -0.0625 C 20.53125 -0.0625 20.109375 -0.0390625 19.515625 0 L 4.265625 -16.65625 L 4.265625 -6.75 C 4.265625 -5.050781 4.332031 -3.828125 4.46875 -3.078125 C 4.601562 -2.335938 4.90625 -1.789062 5.375 -1.4375 C 5.851562 -1.09375 6.640625 -0.84375 7.734375 -0.6875 L 7.734375 0 C 6.796875 -0.0703125 5.515625 -0.109375 3.890625 -0.109375 C 2.671875 -0.109375 1.71875 -0.0703125 1.03125 0 L 1.03125 -0.6875 C 1.738281 -0.84375 2.265625 -1.085938 2.609375 -1.421875 C 2.953125 -1.753906 3.179688 -2.265625 3.296875 -2.953125 C 3.410156 -3.640625 3.46875 -4.675781 3.46875 -6.0625 L 3.46875 -20.71875 C 3.46875 -21.582031 3.40625 -22.207031 3.28125 -22.59375 C 3.15625 -22.988281 2.929688 -23.253906 2.609375 -23.390625 C 2.296875 -23.535156 1.769531 -23.628906 1.03125 -23.671875 L 1.03125 -24.359375 C 1.71875 -24.285156 2.671875 -24.25 3.890625 -24.25 C 5.128906 -24.25 6.179688 -24.285156 7.046875 -24.359375 L 21.125 -9.5 L 21.125 -17.609375 C 21.125 -19.304688 21.054688 -20.523438 20.921875 -21.265625 C 20.785156 -22.015625 20.476562 -22.5625 20 -22.90625 C 19.53125 -23.257812 18.75 -23.515625 17.65625 -23.671875 L 17.65625 -24.359375 C 18.59375 -24.285156 19.875 -24.25 21.5 -24.25 C 22.71875 -24.25 23.671875 -24.285156 24.359375 -24.359375 Z M 24.359375 -23.671875 "/></g></g></g><g fill="#000000" fill-opacity="1"><g transform="translate(266.985032, 253.732659)"><g><path d="M 12.828125 -23.671875 C 12.097656 -23.628906 11.566406 -23.535156 11.234375 -23.390625 C 10.898438 -23.253906 10.675781 -22.988281 10.5625 -22.59375 C 10.445312 -22.207031 10.390625 -21.582031 10.390625 -20.71875 L 10.390625 -3.640625 C 10.390625 -2.773438 10.453125 -2.144531 10.578125 -1.75 C 10.703125 -1.363281 10.925781 -1.097656 11.25 -0.953125 C 11.570312 -0.816406 12.097656 -0.726562 12.828125 -0.6875 L 12.828125 0 C 11.503906 -0.0703125 9.59375 -0.109375 7.09375 -0.109375 C 4.3125 -0.109375 2.269531 -0.0703125 0.96875 0 L 0.96875 -0.6875 C 1.695312 -0.726562 2.226562 -0.816406 2.5625 -0.953125 C 2.894531 -1.097656 3.117188 -1.363281 3.234375 -1.75 C 3.347656 -2.144531 3.40625 -2.773438 3.40625 -3.640625 L 3.40625 -20.71875 C 3.40625 -21.582031 3.34375 -22.207031 3.21875 -22.59375 C 3.09375 -22.988281 2.867188 -23.253906 2.546875 -23.390625 C 2.222656 -23.535156 1.695312 -23.628906 0.96875 -23.671875 L 0.96875 -24.359375 C 2.269531 -24.285156 4.3125 -24.25 7.09375 -24.25 C 9.5625 -24.25 11.472656 -24.285156 12.828125 -24.359375 Z M 12.828125 -23.671875 "/></g></g></g><g clip-path="url(#df5dd219e8)"><path fill="#ffffff" d="M 192.558594 156.5625 L 219.511719 200.492188 L 172.730469 200.492188 C 172.511719 199.324219 172.511719 198.113281 172.675781 196.902344 C 172.894531 195.199219 173.484375 193.453125 174.183594 191.734375 L 203.910156 191.734375 L 189.457031 168.121094 C 191.433594 164.453125 192.863281 160.414062 192.558594 156.5625 Z M 192.558594 156.5625 " fill-opacity="1" fill-rule="nonzero"/></g><g clip-path="url(#c343947c40)"><path fill="#0098da" d="M 175.84375 208.792969 C 170.382812 203.953125 167.296875 198.582031 174.816406 185.796875 C 179.523438 177.855469 192.132812 165.179688 190.210938 155.574219 C 189.675781 152.398438 188.195312 150.105469 186.632812 148.539062 C 181.910156 142.792969 171.742188 144.8125 171.742188 144.8125 C 210.234375 154.0625 132.574219 193.507812 175.84375 208.792969 Z M 175.84375 208.792969 " fill-opacity="1" fill-rule="nonzero"/></g><path fill="#0098da" d="M 169.957031 146.515625 L 171.261719 146.820312 C 174.390625 147.574219 179.589844 149.140625 180.578125 152.742188 C 181.332031 155.519531 179.550781 159.242188 178.261719 161.621094 C 175.886719 165.828125 172.796875 169.867188 170.027344 173.828125 C 165.566406 180.054688 158.992188 189.332031 160.476562 197.398438 C 161.105469 200.902344 163.070312 203.625 165.664062 205.742188 C 156.617188 200.667969 147.21875 192.558594 152.363281 182.652344 C 161.296875 165.429688 185.039062 158.902344 169.957031 146.515625 Z M 169.957031 146.515625 " fill-opacity="1" fill-rule="nonzero"/><g fill="#0098da" fill-opacity="1"><g transform="translate(128.880853, 276.991739)"><g><path d="M 7.96875 -0.40625 C 7.394531 -0.15625 6.8125 0.0195312 6.21875 0.125 C 5.632812 0.238281 5.078125 0.296875 4.546875 0.296875 C 4.023438 0.296875 3.554688 0.265625 3.140625 0.203125 C 2.722656 0.148438 2.304688 0.0546875 1.890625 -0.078125 C 1.484375 -0.222656 1.128906 -0.398438 0.828125 -0.609375 C 0.160156 -1.085938 -0.171875 -1.757812 -0.171875 -2.625 C -0.171875 -3.144531 -0.0507812 -3.628906 0.1875 -4.078125 C 0.425781 -4.523438 0.738281 -4.894531 1.125 -5.1875 C 1.945312 -5.820312 2.84375 -6.140625 3.8125 -6.140625 C 4.976562 -6.140625 5.847656 -5.796875 6.421875 -5.109375 C 6.703125 -4.765625 6.84375 -4.34375 6.84375 -3.84375 C 6.84375 -3.351562 6.609375 -2.925781 6.140625 -2.5625 C 5.671875 -2.207031 5.179688 -2.03125 4.671875 -2.03125 C 4.546875 -2.03125 4.484375 -2.09375 4.484375 -2.21875 C 4.484375 -2.34375 4.539062 -2.429688 4.65625 -2.484375 C 4.769531 -2.546875 4.910156 -2.597656 5.078125 -2.640625 C 5.242188 -2.691406 5.410156 -2.753906 5.578125 -2.828125 C 5.972656 -3.015625 6.171875 -3.3125 6.171875 -3.71875 C 6.171875 -4.125 5.984375 -4.429688 5.609375 -4.640625 C 5.242188 -4.847656 4.597656 -4.953125 3.671875 -4.953125 C 2.753906 -4.953125 2.046875 -4.71875 1.546875 -4.25 C 1.046875 -3.78125 0.796875 -3.222656 0.796875 -2.578125 C 0.796875 -1.734375 1.171875 -1.132812 1.921875 -0.78125 C 2.597656 -0.457031 3.40625 -0.296875 4.34375 -0.296875 C 5.957031 -0.296875 7.257812 -0.753906 8.25 -1.671875 C 8.957031 -2.316406 9.3125 -3.128906 9.3125 -4.109375 C 9.3125 -4.691406 9.101562 -5.257812 8.6875 -5.8125 C 8.5 -6.050781 8.296875 -6.289062 8.078125 -6.53125 C 7.859375 -6.78125 7.632812 -7.023438 7.40625 -7.265625 C 7.1875 -7.503906 6.984375 -7.742188 6.796875 -7.984375 C 6.378906 -8.503906 6.171875 -8.992188 6.171875 -9.453125 C 6.171875 -9.910156 6.242188 -10.304688 6.390625 -10.640625 C 6.546875 -10.972656 6.75 -11.257812 7 -11.5 C 7.25 -11.738281 7.535156 -11.945312 7.859375 -12.125 C 8.503906 -12.488281 9.191406 -12.671875 9.921875 -12.671875 C 10.554688 -12.671875 11.144531 -12.519531 11.6875 -12.21875 C 12.289062 -11.882812 12.59375 -11.382812 12.59375 -10.71875 C 12.59375 -10.445312 12.5 -10.210938 12.3125 -10.015625 C 12.125 -9.816406 11.910156 -9.71875 11.671875 -9.71875 C 11.441406 -9.71875 11.25 -9.785156 11.09375 -9.921875 C 10.945312 -10.054688 10.875 -10.207031 10.875 -10.375 C 10.875 -10.539062 10.941406 -10.71875 11.078125 -10.90625 C 11.222656 -11.101562 11.296875 -11.265625 11.296875 -11.390625 C 11.296875 -11.515625 11.242188 -11.628906 11.140625 -11.734375 C 11.035156 -11.835938 10.898438 -11.914062 10.734375 -11.96875 C 10.410156 -12.070312 10.113281 -12.125 9.84375 -12.125 C 9.21875 -12.125 8.679688 -11.9375 8.234375 -11.5625 C 7.796875 -11.195312 7.578125 -10.6875 7.578125 -10.03125 C 7.578125 -9.675781 7.800781 -9.253906 8.25 -8.765625 C 8.445312 -8.554688 8.660156 -8.332031 8.890625 -8.09375 C 9.128906 -7.863281 9.367188 -7.613281 9.609375 -7.34375 C 9.847656 -7.070312 10.070312 -6.789062 10.28125 -6.5 C 10.71875 -5.875 10.9375 -5.21875 10.9375 -4.53125 C 10.9375 -3.851562 10.800781 -3.238281 10.53125 -2.6875 C 10.269531 -2.132812 9.921875 -1.675781 9.484375 -1.3125 C 9.046875 -0.957031 8.539062 -0.65625 7.96875 -0.40625 Z M 7.96875 -0.40625 "/></g></g><g transform="translate(140.535149, 276.991739)"><g><path d="M 6.9375 -5.109375 C 6.15625 -3.023438 5.765625 -1.757812 5.765625 -1.3125 C 5.765625 -1.125 5.8125 -1.03125 5.90625 -1.03125 C 6.164062 -1.03125 6.539062 -1.40625 7.03125 -2.15625 L 7.40625 -1.796875 C 7.09375 -1.234375 6.722656 -0.769531 6.296875 -0.40625 C 5.878906 -0.0390625 5.539062 0.140625 5.28125 0.140625 C 4.726562 0.140625 4.453125 -0.132812 4.453125 -0.6875 C 4.453125 -1.113281 4.550781 -1.632812 4.75 -2.25 C 4.945312 -2.863281 5.046875 -3.175781 5.046875 -3.1875 C 5.023438 -3.132812 4.957031 -3.007812 4.84375 -2.8125 C 4.726562 -2.625 4.644531 -2.484375 4.59375 -2.390625 C 4.539062 -2.296875 4.453125 -2.148438 4.328125 -1.953125 C 4.210938 -1.765625 4.113281 -1.617188 4.03125 -1.515625 C 3.957031 -1.410156 3.851562 -1.269531 3.71875 -1.09375 C 3.59375 -0.925781 3.476562 -0.789062 3.375 -0.6875 C 3.269531 -0.59375 3.144531 -0.484375 3 -0.359375 C 2.863281 -0.242188 2.734375 -0.15625 2.609375 -0.09375 C 2.304688 0.0625 2.015625 0.140625 1.734375 0.140625 C 1.035156 0.140625 0.6875 -0.242188 0.6875 -1.015625 C 0.6875 -1.359375 0.8125 -1.898438 1.0625 -2.640625 C 1.320312 -3.390625 1.453125 -3.828125 1.453125 -3.953125 C 1.453125 -4.085938 1.410156 -4.15625 1.328125 -4.15625 C 1.085938 -4.15625 0.765625 -3.785156 0.359375 -3.046875 L -0.21875 -3.390625 C 0.582031 -4.671875 1.351562 -5.3125 2.09375 -5.3125 C 2.34375 -5.3125 2.539062 -5.238281 2.6875 -5.09375 C 2.832031 -4.957031 2.898438 -4.75 2.890625 -4.46875 C 2.890625 -4.1875 2.75 -3.679688 2.46875 -2.953125 C 2.1875 -2.222656 2.046875 -1.664062 2.046875 -1.28125 C 2.046875 -1.0625 2.144531 -0.953125 2.34375 -0.953125 C 2.5625 -0.953125 2.820312 -1.09375 3.125 -1.375 C 3.4375 -1.664062 3.738281 -2.015625 4.03125 -2.421875 C 4.488281 -3.066406 4.960938 -3.820312 5.453125 -4.6875 L 5.6875 -5.109375 Z M 6.9375 -5.109375 "/></g></g><g transform="translate(148.410149, 276.991739)"><g><path d="M 1.5625 0.140625 C 1.320312 0.140625 1.128906 0.0664062 0.984375 -0.078125 C 0.847656 -0.234375 0.78125 -0.441406 0.78125 -0.703125 C 0.78125 -0.972656 0.847656 -1.335938 0.984375 -1.796875 C 1.117188 -2.265625 1.253906 -2.6875 1.390625 -3.0625 C 1.523438 -3.4375 1.59375 -3.6875 1.59375 -3.8125 C 1.59375 -3.9375 1.554688 -4 1.484375 -4 C 1.273438 -4 0.941406 -3.59375 0.484375 -2.78125 L -0.109375 -3.125 C 0.753906 -4.582031 1.546875 -5.3125 2.265625 -5.3125 C 2.753906 -5.3125 3 -5 3 -4.375 C 3 -4.195312 2.941406 -3.90625 2.828125 -3.5 L 2.203125 -1.703125 C 2.128906 -1.523438 2.09375 -1.367188 2.09375 -1.234375 C 2.09375 -1.097656 2.148438 -1.03125 2.265625 -1.03125 C 2.460938 -1.03125 2.828125 -1.398438 3.359375 -2.140625 L 3.734375 -1.796875 C 3.410156 -1.210938 3.03125 -0.742188 2.59375 -0.390625 C 2.15625 -0.0351562 1.8125 0.140625 1.5625 0.140625 Z M 4.0625 -7.90625 C 4.0625 -7.664062 3.984375 -7.445312 3.828125 -7.25 C 3.671875 -7.0625 3.457031 -6.96875 3.1875 -6.96875 C 2.914062 -6.96875 2.710938 -7.046875 2.578125 -7.203125 C 2.441406 -7.367188 2.375 -7.570312 2.375 -7.8125 C 2.375 -8.0625 2.457031 -8.28125 2.625 -8.46875 C 2.800781 -8.664062 3.019531 -8.765625 3.28125 -8.765625 C 3.539062 -8.765625 3.734375 -8.679688 3.859375 -8.515625 C 3.992188 -8.347656 4.0625 -8.144531 4.0625 -7.90625 Z M 4.0625 -7.90625 "/></g></g><g transform="translate(152.664055, 276.991739)"><g><path d="M 2.390625 -0.84375 C 2.890625 -0.84375 3.394531 -1.019531 3.90625 -1.375 C 4.414062 -1.726562 4.820312 -2.140625 5.125 -2.609375 C 5.425781 -3.078125 5.578125 -3.5 5.578125 -3.875 C 5.546875 -3.820312 5.421875 -3.796875 5.203125 -3.796875 C 4.984375 -3.796875 4.804688 -3.867188 4.671875 -4.015625 C 4.535156 -4.160156 4.46875 -4.332031 4.46875 -4.53125 C 4.46875 -4.726562 4.539062 -4.90625 4.6875 -5.0625 C 4.84375 -5.226562 5.054688 -5.3125 5.328125 -5.3125 C 6.066406 -5.3125 6.4375 -4.90625 6.4375 -4.09375 C 6.4375 -3.71875 6.320312 -3.289062 6.09375 -2.8125 C 5.863281 -2.34375 5.550781 -1.882812 5.15625 -1.4375 C 4.769531 -1 4.265625 -0.625 3.640625 -0.3125 C 3.015625 -0.0078125 2.351562 0.140625 1.65625 0.140625 C 0.957031 0.140625 0.609375 -0.195312 0.609375 -0.875 C 0.609375 -1.25 0.71875 -1.765625 0.9375 -2.421875 C 1.164062 -3.078125 1.28125 -3.492188 1.28125 -3.671875 C 1.28125 -3.859375 1.222656 -3.953125 1.109375 -3.953125 C 0.953125 -3.953125 0.640625 -3.566406 0.171875 -2.796875 L -0.390625 -3.125 C 0.460938 -4.582031 1.253906 -5.3125 1.984375 -5.3125 C 2.171875 -5.3125 2.335938 -5.238281 2.484375 -5.09375 C 2.628906 -4.945312 2.703125 -4.710938 2.703125 -4.390625 C 2.703125 -4.066406 2.582031 -3.46875 2.34375 -2.59375 C 2.113281 -1.71875 2 -1.253906 2 -1.203125 C 2 -0.960938 2.128906 -0.84375 2.390625 -0.84375 Z M 2.390625 -0.84375 "/></g></g><g transform="translate(159.704094, 276.991739)"><g><path d="M 1.5625 0.140625 C 1.320312 0.140625 1.128906 0.0664062 0.984375 -0.078125 C 0.847656 -0.234375 0.78125 -0.441406 0.78125 -0.703125 C 0.78125 -0.972656 0.847656 -1.335938 0.984375 -1.796875 C 1.117188 -2.265625 1.253906 -2.6875 1.390625 -3.0625 C 1.523438 -3.4375 1.59375 -3.6875 1.59375 -3.8125 C 1.59375 -3.9375 1.554688 -4 1.484375 -4 C 1.273438 -4 0.941406 -3.59375 0.484375 -2.78125 L -0.109375 -3.125 C 0.753906 -4.582031 1.546875 -5.3125 2.265625 -5.3125 C 2.753906 -5.3125 3 -5 3 -4.375 C 3 -4.195312 2.941406 -3.90625 2.828125 -3.5 L 2.203125 -1.703125 C 2.128906 -1.523438 2.09375 -1.367188 2.09375 -1.234375 C 2.09375 -1.097656 2.148438 -1.03125 2.265625 -1.03125 C 2.460938 -1.03125 2.828125 -1.398438 3.359375 -2.140625 L 3.734375 -1.796875 C 3.410156 -1.210938 3.03125 -0.742188 2.59375 -0.390625 C 2.15625 -0.0351562 1.8125 0.140625 1.5625 0.140625 Z M 4.0625 -7.90625 C 4.0625 -7.664062 3.984375 -7.445312 3.828125 -7.25 C 3.671875 -7.0625 3.457031 -6.96875 3.1875 -6.96875 C 2.914062 -6.96875 2.710938 -7.046875 2.578125 -7.203125 C 2.441406 -7.367188 2.375 -7.570312 2.375 -7.8125 C 2.375 -8.0625 2.457031 -8.28125 2.625 -8.46875 C 2.800781 -8.664062 3.019531 -8.765625 3.28125 -8.765625 C 3.539062 -8.765625 3.734375 -8.679688 3.859375 -8.515625 C 3.992188 -8.347656 4.0625 -8.144531 4.0625 -7.90625 Z M 4.0625 -7.90625 "/></g></g><g transform="translate(163.958, 276.991739)"><g/></g><g transform="translate(167.034171, 276.991739)"><g><path d="M 1.625 -1.734375 C 1.65625 -1.054688 2.109375 -0.71875 2.984375 -0.71875 C 3.304688 -0.71875 3.640625 -0.8125 3.984375 -1 C 4.335938 -1.1875 4.617188 -1.40625 4.828125 -1.65625 L 5.21875 -1.40625 C 4.726562 -0.59375 3.953125 -0.09375 2.890625 0.09375 C 2.648438 0.125 2.421875 0.140625 2.203125 0.140625 C 1.566406 0.140625 1.035156 -0.0664062 0.609375 -0.484375 C 0.191406 -0.898438 -0.015625 -1.410156 -0.015625 -2.015625 C -0.015625 -2.617188 0.164062 -3.175781 0.53125 -3.6875 C 0.90625 -4.207031 1.367188 -4.609375 1.921875 -4.890625 C 2.484375 -5.171875 3.03125 -5.3125 3.5625 -5.3125 C 4.101562 -5.3125 4.570312 -5.1875 4.96875 -4.9375 C 5.363281 -4.695312 5.566406 -4.367188 5.578125 -3.953125 C 5.585938 -3.535156 5.460938 -3.175781 5.203125 -2.875 C 4.953125 -2.570312 4.632812 -2.34375 4.25 -2.1875 C 3.488281 -1.875 2.738281 -1.71875 2 -1.71875 Z M 1.5625 -2.21875 C 2.21875 -2.238281 2.742188 -2.335938 3.140625 -2.515625 C 3.535156 -2.703125 3.804688 -2.914062 3.953125 -3.15625 C 4.109375 -3.394531 4.1875 -3.644531 4.1875 -3.90625 C 4.1875 -4.164062 4.117188 -4.359375 3.984375 -4.484375 C 3.847656 -4.609375 3.707031 -4.671875 3.5625 -4.671875 C 3.1875 -4.671875 2.84375 -4.539062 2.53125 -4.28125 C 2.21875 -4.019531 1.976562 -3.703125 1.8125 -3.328125 C 1.644531 -2.960938 1.5625 -2.59375 1.5625 -2.21875 Z M 1.5625 -2.21875 "/></g></g><g transform="translate(173.239249, 276.991739)"><g><path d="M 2.390625 -2.46875 C 3.617188 -4.363281 4.71875 -5.3125 5.6875 -5.3125 C 6.007812 -5.3125 6.253906 -5.210938 6.421875 -5.015625 C 6.585938 -4.816406 6.671875 -4.5625 6.671875 -4.25 C 6.671875 -3.945312 6.535156 -3.421875 6.265625 -2.671875 C 5.992188 -1.921875 5.859375 -1.457031 5.859375 -1.28125 C 5.859375 -1.101562 5.898438 -1.015625 5.984375 -1.015625 C 6.097656 -1.015625 6.269531 -1.132812 6.5 -1.375 C 6.726562 -1.613281 6.929688 -1.867188 7.109375 -2.140625 L 7.484375 -1.796875 C 7.128906 -1.148438 6.742188 -0.664062 6.328125 -0.34375 C 5.910156 -0.0195312 5.566406 0.140625 5.296875 0.140625 C 5.035156 0.140625 4.832031 0.0546875 4.6875 -0.109375 C 4.539062 -0.285156 4.46875 -0.523438 4.46875 -0.828125 C 4.46875 -1.128906 4.585938 -1.617188 4.828125 -2.296875 C 5.066406 -2.972656 5.1875 -3.453125 5.1875 -3.734375 C 5.1875 -4.015625 5.085938 -4.15625 4.890625 -4.15625 C 4.671875 -4.15625 4.40625 -4.015625 4.09375 -3.734375 C 3.789062 -3.453125 3.5 -3.101562 3.21875 -2.6875 C 2.757812 -2.03125 2.289062 -1.273438 1.8125 -0.421875 L 1.578125 0 L 0.34375 0 L 0.609375 -0.828125 C 1.117188 -2.347656 1.375 -3.25 1.375 -3.53125 C 1.375 -3.820312 1.328125 -3.96875 1.234375 -3.96875 C 1.066406 -3.96875 0.867188 -3.765625 0.640625 -3.359375 C 0.578125 -3.265625 0.53125 -3.1875 0.5 -3.125 C 0.46875 -3.070312 0.425781 -3.003906 0.375 -2.921875 C 0.332031 -2.847656 0.304688 -2.800781 0.296875 -2.78125 L -0.296875 -3.125 C 0.160156 -3.875 0.578125 -4.425781 0.953125 -4.78125 C 1.335938 -5.132812 1.734375 -5.3125 2.140625 -5.3125 C 2.316406 -5.3125 2.46875 -5.234375 2.59375 -5.078125 C 2.726562 -4.929688 2.796875 -4.75 2.796875 -4.53125 C 2.796875 -4.3125 2.78125 -4.097656 2.75 -3.890625 C 2.71875 -3.679688 2.679688 -3.507812 2.640625 -3.375 C 2.597656 -3.238281 2.546875 -3.0625 2.484375 -2.84375 C 2.429688 -2.625 2.398438 -2.5 2.390625 -2.46875 Z M 2.390625 -2.46875 "/></g></g><g transform="translate(181.184561, 276.991739)"><g/></g><g transform="translate(184.260733, 276.991739)"><g><path d="M 1.203125 -5.109375 C 1.796875 -6.984375 2.410156 -8.554688 3.046875 -9.828125 L 4.125 -9.734375 C 4.0625 -9.546875 3.90625 -9.097656 3.65625 -8.390625 C 3.113281 -6.804688 2.765625 -5.710938 2.609375 -5.109375 L 3.984375 -5.109375 L 3.84375 -4.53125 L 2.421875 -4.53125 C 1.878906 -2.875 1.609375 -1.863281 1.609375 -1.5 C 1.609375 -1.132812 1.644531 -0.953125 1.71875 -0.953125 C 1.789062 -0.953125 1.859375 -0.96875 1.921875 -1 C 2.078125 -1.09375 2.414062 -1.519531 2.9375 -2.28125 L 3.296875 -1.953125 C 2.898438 -1.242188 2.492188 -0.71875 2.078125 -0.375 C 1.660156 -0.03125 1.316406 0.140625 1.046875 0.140625 C 0.785156 0.140625 0.582031 0.046875 0.4375 -0.140625 C 0.300781 -0.328125 0.234375 -0.566406 0.234375 -0.859375 C 0.234375 -1.609375 0.492188 -2.832031 1.015625 -4.53125 L 0.09375 -4.53125 L 0.234375 -5.109375 Z M 1.203125 -5.109375 "/></g></g><g transform="translate(188.207021, 276.991739)"><g><path d="M 1.625 -1.734375 C 1.65625 -1.054688 2.109375 -0.71875 2.984375 -0.71875 C 3.304688 -0.71875 3.640625 -0.8125 3.984375 -1 C 4.335938 -1.1875 4.617188 -1.40625 4.828125 -1.65625 L 5.21875 -1.40625 C 4.726562 -0.59375 3.953125 -0.09375 2.890625 0.09375 C 2.648438 0.125 2.421875 0.140625 2.203125 0.140625 C 1.566406 0.140625 1.035156 -0.0664062 0.609375 -0.484375 C 0.191406 -0.898438 -0.015625 -1.410156 -0.015625 -2.015625 C -0.015625 -2.617188 0.164062 -3.175781 0.53125 -3.6875 C 0.90625 -4.207031 1.367188 -4.609375 1.921875 -4.890625 C 2.484375 -5.171875 3.03125 -5.3125 3.5625 -5.3125 C 4.101562 -5.3125 4.570312 -5.1875 4.96875 -4.9375 C 5.363281 -4.695312 5.566406 -4.367188 5.578125 -3.953125 C 5.585938 -3.535156 5.460938 -3.175781 5.203125 -2.875 C 4.953125 -2.570312 4.632812 -2.34375 4.25 -2.1875 C 3.488281 -1.875 2.738281 -1.71875 2 -1.71875 Z M 1.5625 -2.21875 C 2.21875 -2.238281 2.742188 -2.335938 3.140625 -2.515625 C 3.535156 -2.703125 3.804688 -2.914062 3.953125 -3.15625 C 4.109375 -3.394531 4.1875 -3.644531 4.1875 -3.90625 C 4.1875 -4.164062 4.117188 -4.359375 3.984375 -4.484375 C 3.847656 -4.609375 3.707031 -4.671875 3.5625 -4.671875 C 3.1875 -4.671875 2.84375 -4.539062 2.53125 -4.28125 C 2.21875 -4.019531 1.976562 -3.703125 1.8125 -3.328125 C 1.644531 -2.960938 1.5625 -2.59375 1.5625 -2.21875 Z M 1.5625 -2.21875 "/></g></g><g transform="translate(194.412099, 276.991739)"><g><path d="M 5.59375 0 L 4.296875 0 L 4.46875 -0.578125 C 4.519531 -0.804688 4.625 -1.140625 4.78125 -1.578125 C 5.125 -2.535156 5.296875 -3.28125 5.296875 -3.8125 C 5.296875 -4.039062 5.195312 -4.15625 5 -4.15625 C 4.757812 -4.15625 4.476562 -4.015625 4.15625 -3.734375 C 3.832031 -3.453125 3.519531 -3.101562 3.21875 -2.6875 C 2.71875 -2 2.222656 -1.242188 1.734375 -0.421875 L 1.5 0 L 0.25 0 C 0.25 0 0.34375 -0.273438 0.53125 -0.828125 C 1.039062 -2.347656 1.296875 -3.25 1.296875 -3.53125 C 1.296875 -3.820312 1.25 -3.96875 1.15625 -3.96875 C 0.976562 -3.96875 0.773438 -3.765625 0.546875 -3.359375 C 0.492188 -3.265625 0.445312 -3.1875 0.40625 -3.125 C 0.375 -3.070312 0.335938 -3.003906 0.296875 -2.921875 C 0.253906 -2.847656 0.226562 -2.800781 0.21875 -2.78125 L -0.375 -3.125 C 0.0820312 -3.875 0.5 -4.425781 0.875 -4.78125 C 1.257812 -5.132812 1.648438 -5.3125 2.046875 -5.3125 C 2.234375 -5.3125 2.390625 -5.234375 2.515625 -5.078125 C 2.648438 -4.929688 2.71875 -4.753906 2.71875 -4.546875 C 2.71875 -4.335938 2.703125 -4.148438 2.671875 -3.984375 C 2.648438 -3.828125 2.625 -3.679688 2.59375 -3.546875 C 2.570312 -3.410156 2.535156 -3.25 2.484375 -3.0625 C 2.429688 -2.875 2.382812 -2.726562 2.34375 -2.625 C 2.3125 -2.53125 2.269531 -2.394531 2.21875 -2.21875 C 2.164062 -2.050781 2.132812 -1.953125 2.125 -1.921875 C 2.238281 -2.128906 2.425781 -2.4375 2.6875 -2.84375 C 2.957031 -3.257812 3.132812 -3.519531 3.21875 -3.625 C 3.300781 -3.726562 3.410156 -3.867188 3.546875 -4.046875 C 3.691406 -4.222656 3.816406 -4.359375 3.921875 -4.453125 C 4.035156 -4.554688 4.164062 -4.664062 4.3125 -4.78125 C 4.46875 -4.90625 4.613281 -5.003906 4.75 -5.078125 C 5.082031 -5.234375 5.414062 -5.3125 5.75 -5.3125 C 6.09375 -5.3125 6.347656 -5.210938 6.515625 -5.015625 C 6.691406 -4.828125 6.78125 -4.601562 6.78125 -4.34375 C 6.78125 -4.09375 6.738281 -3.828125 6.65625 -3.546875 C 6.582031 -3.273438 6.472656 -2.957031 6.328125 -2.59375 C 6.191406 -2.226562 6.101562 -1.984375 6.0625 -1.859375 C 6.625 -2.765625 7.054688 -3.40625 7.359375 -3.78125 C 8.171875 -4.800781 8.976562 -5.3125 9.78125 -5.3125 C 10.164062 -5.3125 10.441406 -5.21875 10.609375 -5.03125 C 10.785156 -4.84375 10.875 -4.585938 10.875 -4.265625 C 10.875 -3.941406 10.734375 -3.40625 10.453125 -2.65625 C 10.179688 -1.90625 10.046875 -1.445312 10.046875 -1.28125 C 10.046875 -1.113281 10.097656 -1.03125 10.203125 -1.03125 C 10.441406 -1.03125 10.816406 -1.398438 11.328125 -2.140625 L 11.703125 -1.796875 C 11.359375 -1.179688 10.976562 -0.703125 10.5625 -0.359375 C 10.144531 -0.0234375 9.785156 0.140625 9.484375 0.140625 C 9.191406 0.140625 8.984375 0.046875 8.859375 -0.140625 C 8.742188 -0.335938 8.6875 -0.566406 8.6875 -0.828125 C 8.6875 -1.097656 8.800781 -1.570312 9.03125 -2.25 C 9.269531 -2.925781 9.390625 -3.445312 9.390625 -3.8125 C 9.390625 -4.039062 9.289062 -4.15625 9.09375 -4.15625 C 8.5 -4.15625 7.648438 -3.296875 6.546875 -1.578125 C 6.097656 -0.878906 5.78125 -0.351562 5.59375 0 Z M 5.59375 0 "/></g></g><g transform="translate(206.576161, 276.991739)"><g><path d="M 6.046875 -1.6875 C 5.785156 -1.15625 5.410156 -0.71875 4.921875 -0.375 C 4.441406 -0.03125 3.890625 0.140625 3.265625 0.140625 C 2.640625 0.140625 2.140625 -0.0976562 1.765625 -0.578125 C 1.492188 0.503906 1.257812 1.273438 1.0625 1.734375 C 0.457031 3.171875 -0.375 3.894531 -1.4375 3.90625 C -1.695312 3.90625 -1.914062 3.816406 -2.09375 3.640625 C -2.269531 3.460938 -2.359375 3.257812 -2.359375 3.03125 C -2.359375 2.800781 -2.296875 2.617188 -2.171875 2.484375 C -2.054688 2.347656 -1.898438 2.28125 -1.703125 2.28125 C -1.515625 2.28125 -1.351562 2.328125 -1.21875 2.421875 C -1.09375 2.515625 -1.03125 2.65625 -1.03125 2.84375 C -1.03125 3.03125 -1.132812 3.234375 -1.34375 3.453125 L -1.296875 3.53125 C -0.929688 3.53125 -0.597656 3 -0.296875 1.9375 C -0.179688 1.507812 -0.0976562 1.175781 -0.046875 0.9375 C 0.00390625 0.695312 0.0351562 0.550781 0.046875 0.5 L 0.96875 -3.125 C 0.6875 -2.9375 0.320312 -2.578125 -0.125 -2.046875 L -0.46875 -2.4375 C -0.207031 -2.789062 0.09375 -3.132812 0.4375 -3.46875 C 0.789062 -3.8125 1.015625 -4.03125 1.109375 -4.125 C 1.566406 -5.476562 2.007812 -6.492188 2.4375 -7.171875 C 2.882812 -7.847656 3.378906 -8.382812 3.921875 -8.78125 L 4.15625 -8.5625 C 3.789062 -8.125 3.476562 -7.566406 3.21875 -6.890625 C 2.957031 -6.210938 2.789062 -5.5625 2.71875 -4.9375 C 3.34375 -5.1875 3.9375 -5.3125 4.5 -5.3125 C 5.070312 -5.3125 5.539062 -5.128906 5.90625 -4.765625 C 6.269531 -4.410156 6.453125 -3.941406 6.453125 -3.359375 C 6.453125 -2.773438 6.316406 -2.21875 6.046875 -1.6875 Z M 2.625 -4.140625 L 1.953125 -1.1875 C 2.066406 -0.957031 2.242188 -0.785156 2.484375 -0.671875 C 2.734375 -0.554688 3.019531 -0.5 3.34375 -0.5 C 3.664062 -0.5 3.960938 -0.632812 4.234375 -0.90625 C 4.734375 -1.414062 4.984375 -2.085938 4.984375 -2.921875 C 4.984375 -3.660156 4.785156 -4.15625 4.390625 -4.40625 C 4.234375 -4.519531 4.019531 -4.578125 3.75 -4.578125 C 3.488281 -4.578125 3.113281 -4.429688 2.625 -4.140625 Z M 2.625 -4.140625 "/></g></g><g transform="translate(213.739246, 276.991739)"><g><path d="M 0.8125 -0.0625 C 0.4375 -0.195312 0.164062 -0.351562 0 -0.53125 C -0.164062 -0.71875 -0.25 -0.921875 -0.25 -1.140625 C -0.25 -1.367188 -0.1875 -1.554688 -0.0625 -1.703125 C 0.0625 -1.847656 0.222656 -1.921875 0.421875 -1.921875 C 0.628906 -1.921875 0.8125 -1.859375 0.96875 -1.734375 C 1.125 -1.617188 1.203125 -1.453125 1.203125 -1.234375 C 1.203125 -1.015625 1.066406 -0.832031 0.796875 -0.6875 C 1.015625 -0.488281 1.351562 -0.390625 1.8125 -0.390625 C 2.800781 -0.390625 3.296875 -0.671875 3.296875 -1.234375 C 3.296875 -1.585938 2.984375 -1.867188 2.359375 -2.078125 C 2.097656 -2.171875 1.835938 -2.265625 1.578125 -2.359375 C 1.316406 -2.460938 1.085938 -2.609375 0.890625 -2.796875 C 0.703125 -2.992188 0.597656 -3.226562 0.578125 -3.5 C 0.578125 -3.90625 0.707031 -4.242188 0.96875 -4.515625 C 1.46875 -5.046875 2.210938 -5.3125 3.203125 -5.3125 C 3.691406 -5.3125 4.125 -5.21875 4.5 -5.03125 C 4.875 -4.84375 5.0625 -4.601562 5.0625 -4.3125 C 5.0625 -4.019531 4.984375 -3.804688 4.828125 -3.671875 C 4.679688 -3.546875 4.507812 -3.484375 4.3125 -3.484375 C 4.113281 -3.484375 3.945312 -3.535156 3.8125 -3.640625 C 3.675781 -3.753906 3.609375 -3.90625 3.609375 -4.09375 C 3.609375 -4.289062 3.722656 -4.460938 3.953125 -4.609375 C 3.804688 -4.703125 3.5625 -4.75 3.21875 -4.75 C 2.875 -4.75 2.5625 -4.695312 2.28125 -4.59375 C 2.007812 -4.5 1.875 -4.363281 1.875 -4.1875 C 1.875 -4.007812 1.972656 -3.859375 2.171875 -3.734375 C 2.378906 -3.617188 2.625 -3.507812 2.90625 -3.40625 C 3.195312 -3.3125 3.484375 -3.203125 3.765625 -3.078125 C 4.054688 -2.953125 4.300781 -2.765625 4.5 -2.515625 C 4.707031 -2.273438 4.8125 -1.976562 4.8125 -1.625 C 4.8125 -1.28125 4.664062 -0.960938 4.375 -0.671875 C 3.832031 -0.128906 3.085938 0.140625 2.140625 0.140625 C 1.640625 0.140625 1.195312 0.0703125 0.8125 -0.0625 Z M 0.8125 -0.0625 "/></g></g><g transform="translate(219.51366, 276.991739)"><g/></g><g transform="translate(222.589832, 276.991739)"><g><path d="M 4.828125 -4.15625 C 4.597656 -4.15625 4.332031 -4.015625 4.03125 -3.734375 C 3.726562 -3.453125 3.429688 -3.101562 3.140625 -2.6875 C 2.691406 -2.03125 2.226562 -1.273438 1.75 -0.421875 L 1.515625 0 L 0.265625 0 C 0.265625 0 0.359375 -0.273438 0.546875 -0.828125 C 1.054688 -2.347656 1.3125 -3.25 1.3125 -3.53125 C 1.3125 -3.820312 1.265625 -3.96875 1.171875 -3.96875 C 1.003906 -3.96875 0.800781 -3.765625 0.5625 -3.359375 C 0.507812 -3.265625 0.460938 -3.1875 0.421875 -3.125 C 0.390625 -3.070312 0.351562 -3.003906 0.3125 -2.921875 C 0.269531 -2.847656 0.242188 -2.800781 0.234375 -2.78125 L -0.359375 -3.125 C 0.0976562 -3.875 0.515625 -4.425781 0.890625 -4.78125 C 1.273438 -5.132812 1.664062 -5.3125 2.0625 -5.3125 C 2.25 -5.3125 2.40625 -5.234375 2.53125 -5.078125 C 2.664062 -4.929688 2.734375 -4.753906 2.734375 -4.546875 C 2.734375 -4.335938 2.71875 -4.148438 2.6875 -3.984375 C 2.664062 -3.828125 2.640625 -3.679688 2.609375 -3.546875 C 2.585938 -3.410156 2.550781 -3.25 2.5 -3.0625 C 2.445312 -2.875 2.40625 -2.726562 2.375 -2.625 C 2.34375 -2.53125 2.296875 -2.394531 2.234375 -2.21875 C 2.179688 -2.050781 2.148438 -1.953125 2.140625 -1.921875 C 2.242188 -2.128906 2.421875 -2.4375 2.671875 -2.84375 C 2.929688 -3.257812 3.097656 -3.519531 3.171875 -3.625 C 3.242188 -3.726562 3.347656 -3.867188 3.484375 -4.046875 C 3.617188 -4.222656 3.738281 -4.359375 3.84375 -4.453125 C 3.945312 -4.554688 4.070312 -4.671875 4.21875 -4.796875 C 4.363281 -4.921875 4.5 -5.015625 4.625 -5.078125 C 4.945312 -5.234375 5.257812 -5.3125 5.5625 -5.3125 C 5.875 -5.3125 6.117188 -5.21875 6.296875 -5.03125 C 6.484375 -4.851562 6.578125 -4.644531 6.578125 -4.40625 C 6.578125 -4.175781 6.503906 -3.972656 6.359375 -3.796875 C 6.210938 -3.617188 6.039062 -3.53125 5.84375 -3.53125 C 5.644531 -3.53125 5.488281 -3.5625 5.375 -3.625 C 5.269531 -3.695312 5.195312 -3.769531 5.15625 -3.84375 C 5.03125 -4.050781 4.921875 -4.15625 4.828125 -4.15625 Z M 4.828125 -4.15625 "/></g></g><g transform="translate(229.304675, 276.991739)"><g><path d="M 1.625 -1.734375 C 1.65625 -1.054688 2.109375 -0.71875 2.984375 -0.71875 C 3.304688 -0.71875 3.640625 -0.8125 3.984375 -1 C 4.335938 -1.1875 4.617188 -1.40625 4.828125 -1.65625 L 5.21875 -1.40625 C 4.726562 -0.59375 3.953125 -0.09375 2.890625 0.09375 C 2.648438 0.125 2.421875 0.140625 2.203125 0.140625 C 1.566406 0.140625 1.035156 -0.0664062 0.609375 -0.484375 C 0.191406 -0.898438 -0.015625 -1.410156 -0.015625 -2.015625 C -0.015625 -2.617188 0.164062 -3.175781 0.53125 -3.6875 C 0.90625 -4.207031 1.367188 -4.609375 1.921875 -4.890625 C 2.484375 -5.171875 3.03125 -5.3125 3.5625 -5.3125 C 4.101562 -5.3125 4.570312 -5.1875 4.96875 -4.9375 C 5.363281 -4.695312 5.566406 -4.367188 5.578125 -3.953125 C 5.585938 -3.535156 5.460938 -3.175781 5.203125 -2.875 C 4.953125 -2.570312 4.632812 -2.34375 4.25 -2.1875 C 3.488281 -1.875 2.738281 -1.71875 2 -1.71875 Z M 1.5625 -2.21875 C 2.21875 -2.238281 2.742188 -2.335938 3.140625 -2.515625 C 3.535156 -2.703125 3.804688 -2.914062 3.953125 -3.15625 C 4.109375 -3.394531 4.1875 -3.644531 4.1875 -3.90625 C 4.1875 -4.164062 4.117188 -4.359375 3.984375 -4.484375 C 3.847656 -4.609375 3.707031 -4.671875 3.5625 -4.671875 C 3.1875 -4.671875 2.84375 -4.539062 2.53125 -4.28125 C 2.21875 -4.019531 1.976562 -3.703125 1.8125 -3.328125 C 1.644531 -2.960938 1.5625 -2.59375 1.5625 -2.21875 Z M 3.609375 -5.90625 L 3.140625 -5.90625 C 3.367188 -6.238281 3.832031 -6.957031 4.53125 -8.0625 L 4.828125 -8.546875 L 6.328125 -8.546875 C 6.242188 -8.460938 6.015625 -8.226562 5.640625 -7.84375 C 4.671875 -6.84375 3.992188 -6.195312 3.609375 -5.90625 Z M 3.609375 -5.90625 "/></g></g><g transform="translate(235.509753, 276.991739)"><g><path d="M 1.625 -1.734375 C 1.65625 -1.054688 2.109375 -0.71875 2.984375 -0.71875 C 3.304688 -0.71875 3.640625 -0.8125 3.984375 -1 C 4.335938 -1.1875 4.617188 -1.40625 4.828125 -1.65625 L 5.21875 -1.40625 C 4.726562 -0.59375 3.953125 -0.09375 2.890625 0.09375 C 2.648438 0.125 2.421875 0.140625 2.203125 0.140625 C 1.566406 0.140625 1.035156 -0.0664062 0.609375 -0.484375 C 0.191406 -0.898438 -0.015625 -1.410156 -0.015625 -2.015625 C -0.015625 -2.617188 0.164062 -3.175781 0.53125 -3.6875 C 0.90625 -4.207031 1.367188 -4.609375 1.921875 -4.890625 C 2.484375 -5.171875 3.03125 -5.3125 3.5625 -5.3125 C 4.101562 -5.3125 4.570312 -5.1875 4.96875 -4.9375 C 5.363281 -4.695312 5.566406 -4.367188 5.578125 -3.953125 C 5.585938 -3.535156 5.460938 -3.175781 5.203125 -2.875 C 4.953125 -2.570312 4.632812 -2.34375 4.25 -2.1875 C 3.488281 -1.875 2.738281 -1.71875 2 -1.71875 Z M 1.5625 -2.21875 C 2.21875 -2.238281 2.742188 -2.335938 3.140625 -2.515625 C 3.535156 -2.703125 3.804688 -2.914062 3.953125 -3.15625 C 4.109375 -3.394531 4.1875 -3.644531 4.1875 -3.90625 C 4.1875 -4.164062 4.117188 -4.359375 3.984375 -4.484375 C 3.847656 -4.609375 3.707031 -4.671875 3.5625 -4.671875 C 3.1875 -4.671875 2.84375 -4.539062 2.53125 -4.28125 C 2.21875 -4.019531 1.976562 -3.703125 1.8125 -3.328125 C 1.644531 -2.960938 1.5625 -2.59375 1.5625 -2.21875 Z M 1.5625 -2.21875 "/></g></g><g transform="translate(241.71483, 276.991739)"><g><path d="M 3.265625 -11.6875 L 4.6875 -11.6875 C 4.4375 -11.257812 4.050781 -10.296875 3.53125 -8.796875 C 3.007812 -7.304688 2.53125 -5.804688 2.09375 -4.296875 C 1.664062 -2.796875 1.453125 -1.875 1.453125 -1.53125 C 1.453125 -1.195312 1.492188 -1.03125 1.578125 -1.03125 C 1.828125 -1.03125 2.210938 -1.398438 2.734375 -2.140625 L 3.109375 -1.796875 C 2.847656 -1.347656 2.566406 -0.972656 2.265625 -0.671875 C 1.742188 -0.128906 1.316406 0.140625 0.984375 0.140625 C 0.390625 0.140625 0.09375 -0.21875 0.09375 -0.9375 C 0.09375 -2.007812 0.445312 -3.695312 1.15625 -6 C 1.863281 -8.3125 2.566406 -10.207031 3.265625 -11.6875 Z M 3.265625 -11.6875 "/></g></g></g></svg>