<svg xmlns="http://www.w3.org/2000/svg" xmlns:xlink="http://www.w3.org/1999/xlink" width="500" zoomAndPan="magnify" viewBox="0 0 375 374.999991" height="500" preserveAspectRatio="xMidYMid meet" version="1.0"><defs><g/><clipPath id="97d95295bb"><path d="M 250.253906 144.128906 L 267.820312 144.128906 L 267.820312 208.457031 L 250.253906 208.457031 Z M 250.253906 144.128906 " clip-rule="nonzero"/></clipPath><clipPath id="db36bd1466"><path d="M 102.074219 144.128906 L 119.644531 144.128906 L 119.644531 208.457031 L 102.074219 208.457031 Z M 102.074219 144.128906 " clip-rule="nonzero"/></clipPath><clipPath id="d2d0e42e94"><path d="M 141.082031 134.089844 L 225.542969 134.089844 L 225.542969 218.550781 L 141.082031 218.550781 Z M 141.082031 134.089844 " clip-rule="nonzero"/></clipPath><clipPath id="a2c48ce5d3"><path d="M 183.3125 134.089844 C 159.988281 134.089844 141.082031 152.996094 141.082031 176.320312 C 141.082031 199.644531 159.988281 218.550781 183.3125 218.550781 C 206.636719 218.550781 225.542969 199.644531 225.542969 176.320312 C 225.542969 152.996094 206.636719 134.089844 183.3125 134.089844 " clip-rule="nonzero"/></clipPath><clipPath id="65d8de8474"><path d="M 170 148 L 230.8125 148 L 230.8125 205 L 170 205 Z M 170 148 " clip-rule="nonzero"/></clipPath><clipPath id="26d01f63db"><path d="M 157 133 L 194 133 L 194 215.101562 L 157 215.101562 Z M 157 133 " clip-rule="nonzero"/></clipPath></defs><path fill="#ffffff" d="M 150.414062 162.09375 L 158.011719 162.09375 L 167.570312 178.523438 L 167.296875 175.449219 L 167.296875 162.09375 L 174.816406 162.09375 L 174.816406 190.578125 L 167.097656 190.578125 L 157.738281 174.40625 L 157.9375 177.949219 L 157.9375 190.578125 L 150.414062 190.578125 L 150.414062 162.09375 " fill-opacity="1" fill-rule="nonzero"/><path fill="#ffffff" d="M 181.941406 162.09375 L 197.160156 162.09375 L 197.160156 168.199219 L 189.464844 168.199219 L 189.464844 173.402344 L 196.242188 173.402344 L 196.242188 179.3125 L 189.464844 179.3125 L 189.464844 190.578125 L 181.941406 190.578125 L 181.941406 162.09375 " fill-opacity="1" fill-rule="nonzero"/><path fill="#ffffff" d="M 219.476562 183.855469 L 219.476562 190.621094 C 217.886719 191.058594 216.464844 191.28125 215.207031 191.28125 C 210.855469 191.28125 207.324219 189.878906 204.621094 187.070312 C 201.914062 184.257812 200.5625 180.5625 200.5625 175.984375 C 200.5625 171.730469 201.925781 168.222656 204.65625 165.453125 C 207.386719 162.6875 210.835938 161.304688 215.007812 161.304688 C 216.632812 161.304688 218.121094 161.492188 219.476562 161.859375 L 219.476562 168.644531 C 218.039062 168.230469 216.679688 168.027344 215.40625 168.027344 C 213.453125 168.027344 211.832031 168.792969 210.539062 170.328125 C 209.25 171.867188 208.605469 173.824219 208.605469 176.199219 C 208.605469 178.757812 209.253906 180.78125 210.554688 182.269531 C 211.851562 183.753906 213.585938 184.496094 215.753906 184.496094 C 216.8125 184.496094 218.054688 184.285156 219.476562 183.855469 " fill-opacity="1" fill-rule="nonzero"/><g clip-path="url(#97d95295bb)"><path fill="#ffffff" d="M 262.382812 176.292969 C 262.382812 186.957031 258.101562 197.148438 250.566406 204.621094 L 254.40625 208.457031 C 262.960938 199.972656 267.816406 188.398438 267.816406 176.292969 C 267.816406 164.1875 262.960938 152.613281 254.40625 144.128906 L 250.566406 147.964844 C 258.101562 155.433594 262.382812 165.628906 262.382812 176.292969 " fill-opacity="1" fill-rule="nonzero"/></g><path fill="#ffffff" d="M 257.074219 176.351562 C 257.277344 167.035156 253.707031 158.019531 247.25 151.273438 L 243.40625 155.109375 C 248.816406 160.8125 251.804688 168.398438 251.640625 176.238281 C 251.480469 184.050781 248.242188 191.425781 242.703125 196.773438 L 246.542969 200.605469 C 253.070312 194.273438 256.886719 185.566406 257.074219 176.351562 " fill-opacity="1" fill-rule="nonzero"/><path fill="#ffffff" d="M 246.875 176.292969 C 246.875 169.765625 244.164062 163.542969 239.425781 159.082031 L 235.582031 162.917969 C 239.308594 166.363281 241.441406 171.210938 241.441406 176.292969 C 241.441406 181.375 239.308594 186.222656 235.582031 189.667969 L 239.425781 193.503906 C 244.164062 189.042969 246.875 182.820312 246.875 176.292969 " fill-opacity="1" fill-rule="nonzero"/><g clip-path="url(#db36bd1466)"><path fill="#ffffff" d="M 107.507812 176.292969 C 107.507812 165.628906 111.789062 155.433594 119.328125 147.964844 L 115.484375 144.128906 C 106.929688 152.613281 102.074219 164.1875 102.074219 176.292969 C 102.074219 188.398438 106.929688 199.972656 115.484375 208.457031 L 119.328125 204.621094 C 111.789062 197.148438 107.507812 186.957031 107.507812 176.292969 " fill-opacity="1" fill-rule="nonzero"/></g><path fill="#ffffff" d="M 112.820312 176.234375 C 112.613281 185.550781 116.183594 194.566406 122.644531 201.3125 L 126.488281 197.476562 C 121.074219 191.773438 118.085938 184.1875 118.25 176.347656 C 118.410156 168.535156 121.648438 161.160156 127.191406 155.8125 L 123.351562 151.980469 C 116.820312 158.3125 113.007812 167.019531 112.820312 176.234375 " fill-opacity="1" fill-rule="nonzero"/><path fill="#ffffff" d="M 123.015625 176.292969 C 123.015625 182.820312 125.726562 189.042969 130.46875 193.503906 L 134.308594 189.667969 C 130.585938 186.222656 128.453125 181.375 128.453125 176.292969 C 128.453125 171.210938 130.585938 166.363281 134.308594 162.917969 L 130.46875 159.082031 C 125.726562 163.542969 123.015625 169.765625 123.015625 176.292969 " fill-opacity="1" fill-rule="nonzero"/><g clip-path="url(#d2d0e42e94)"><g clip-path="url(#a2c48ce5d3)"><path fill="#000000" d="M 141.082031 134.089844 L 225.542969 134.089844 L 225.542969 218.550781 L 141.082031 218.550781 Z M 141.082031 134.089844 " fill-opacity="1" fill-rule="nonzero"/></g></g><g fill="#ffffff" fill-opacity="1"><g transform="translate(94.203953, 249.982659)"><g><path d="M 22.015625 -2.890625 C 22.316406 -2.160156 22.644531 -1.613281 23 -1.25 C 23.351562 -0.894531 23.703125 -0.707031 24.046875 -0.6875 L 24.046875 0 C 22.398438 -0.0703125 20.3125 -0.109375 17.78125 -0.109375 C 15.164062 -0.109375 13.238281 -0.0703125 12 0 L 12 -0.6875 C 12.875 -0.726562 13.492188 -0.832031 13.859375 -1 C 14.234375 -1.175781 14.421875 -1.484375 14.421875 -1.921875 C 14.421875 -2.335938 14.28125 -2.890625 14 -3.578125 L 11.96875 -9.21875 L 5.015625 -9.21875 L 4.4375 -7.671875 C 3.675781 -5.722656 3.296875 -4.234375 3.296875 -3.203125 C 3.296875 -2.265625 3.5625 -1.617188 4.09375 -1.265625 C 4.625 -0.921875 5.40625 -0.726562 6.4375 -0.6875 L 6.4375 0 C 4.71875 -0.0703125 3.210938 -0.109375 1.921875 -0.109375 C 0.847656 -0.109375 -0.03125 -0.0703125 -0.71875 0 L -0.71875 -0.6875 C -0.144531 -0.78125 0.390625 -1.132812 0.890625 -1.75 C 1.398438 -2.375 1.914062 -3.363281 2.4375 -4.71875 L 10.078125 -24.359375 C 10.816406 -24.316406 11.425781 -24.296875 11.90625 -24.296875 C 12.363281 -24.296875 12.957031 -24.316406 13.6875 -24.359375 Z M 11.734375 -9.90625 L 8.59375 -18.515625 L 5.296875 -9.90625 Z M 11.734375 -9.90625 "/></g></g></g><g fill="#ffffff" fill-opacity="1"><g transform="translate(124.886769, 249.982659)"><g><path d="M 13.796875 -12.765625 C 16.046875 -12.648438 17.894531 -12.289062 19.34375 -11.6875 C 20.800781 -11.09375 21.863281 -10.351562 22.53125 -9.46875 C 23.195312 -8.59375 23.53125 -7.660156 23.53125 -6.671875 C 23.53125 -4.421875 22.632812 -2.742188 20.84375 -1.640625 C 19.0625 -0.546875 16.519531 0 13.21875 0 C 12.550781 0 11.988281 -0.0078125 11.53125 -0.03125 C 9.96875 -0.0820312 8.441406 -0.109375 6.953125 -0.109375 C 4.265625 -0.109375 2.269531 -0.0703125 0.96875 0 L 0.96875 -0.6875 C 1.695312 -0.726562 2.226562 -0.816406 2.5625 -0.953125 C 2.894531 -1.097656 3.117188 -1.363281 3.234375 -1.75 C 3.347656 -2.144531 3.40625 -2.773438 3.40625 -3.640625 L 3.40625 -20.71875 C 3.40625 -21.582031 3.34375 -22.207031 3.21875 -22.59375 C 3.09375 -22.988281 2.867188 -23.253906 2.546875 -23.390625 C 2.222656 -23.535156 1.695312 -23.628906 0.96875 -23.671875 L 0.96875 -24.359375 C 2.269531 -24.285156 4.238281 -24.25 6.875 -24.25 L 10.84375 -24.296875 C 11.300781 -24.316406 11.828125 -24.328125 12.421875 -24.328125 C 15.453125 -24.328125 17.765625 -23.835938 19.359375 -22.859375 C 20.953125 -21.890625 21.75 -20.578125 21.75 -18.921875 C 21.75 -18.078125 21.445312 -17.222656 20.84375 -16.359375 C 20.25 -15.492188 19.351562 -14.738281 18.15625 -14.09375 C 16.96875 -13.457031 15.515625 -13.035156 13.796875 -12.828125 Z M 12.25 -23.671875 C 11.71875 -23.671875 11.320312 -23.585938 11.0625 -23.421875 C 10.800781 -23.265625 10.625 -22.976562 10.53125 -22.5625 C 10.4375 -22.15625 10.390625 -21.539062 10.390625 -20.71875 L 10.390625 -12.9375 L 11.3125 -12.9375 C 12.550781 -12.9375 13.414062 -13.445312 13.90625 -14.46875 C 14.40625 -15.488281 14.65625 -16.847656 14.65625 -18.546875 C 14.65625 -20.285156 14.460938 -21.570312 14.078125 -22.40625 C 13.703125 -23.25 13.09375 -23.671875 12.25 -23.671875 Z M 12.625 -0.796875 C 15.082031 -0.796875 16.3125 -2.800781 16.3125 -6.8125 C 16.3125 -8.625 15.875 -10 15 -10.9375 C 14.125 -11.882812 12.75 -12.359375 10.875 -12.359375 L 10.390625 -12.359375 L 10.390625 -3.640625 C 10.390625 -2.816406 10.445312 -2.207031 10.5625 -1.8125 C 10.675781 -1.425781 10.882812 -1.160156 11.1875 -1.015625 C 11.5 -0.867188 11.976562 -0.796875 12.625 -0.796875 Z M 12.625 -0.796875 "/></g></g></g><g fill="#ffffff" fill-opacity="1"><g transform="translate(155.982316, 249.982659)"><g><path d="M 20.640625 -5.78125 C 20.640625 -3.4375 20.722656 -1.507812 20.890625 0 C 19.328125 -0.0703125 16.695312 -0.109375 13 -0.109375 C 7.632812 -0.109375 3.625 -0.0703125 0.96875 0 L 0.96875 -0.6875 C 1.695312 -0.726562 2.226562 -0.816406 2.5625 -0.953125 C 2.894531 -1.097656 3.117188 -1.363281 3.234375 -1.75 C 3.347656 -2.144531 3.40625 -2.773438 3.40625 -3.640625 L 3.40625 -20.71875 C 3.40625 -21.582031 3.34375 -22.207031 3.21875 -22.59375 C 3.09375 -22.988281 2.867188 -23.253906 2.546875 -23.390625 C 2.222656 -23.535156 1.695312 -23.628906 0.96875 -23.671875 L 0.96875 -24.359375 C 3.625 -24.285156 7.632812 -24.25 13 -24.25 C 16.375 -24.25 18.773438 -24.285156 20.203125 -24.359375 C 20.035156 -22.203125 19.953125 -20.273438 19.953125 -18.578125 C 19.953125 -17.523438 19.988281 -16.703125 20.0625 -16.109375 L 19.265625 -16.109375 C 18.847656 -18.765625 18.078125 -20.671875 16.953125 -21.828125 C 15.835938 -22.984375 14.5 -23.5625 12.9375 -23.5625 L 12.484375 -23.5625 C 11.867188 -23.5625 11.414062 -23.507812 11.125 -23.40625 C 10.84375 -23.3125 10.648438 -23.117188 10.546875 -22.828125 C 10.441406 -22.535156 10.390625 -22.0625 10.390625 -21.40625 L 10.390625 -12.59375 L 10.734375 -12.59375 C 11.929688 -12.59375 12.953125 -13.0625 13.796875 -14 C 14.640625 -14.9375 15.175781 -15.984375 15.40625 -17.140625 L 16.203125 -17.140625 C 16.140625 -16.171875 16.109375 -15.09375 16.109375 -13.90625 L 16.109375 -12.25 C 16.109375 -11.082031 16.175781 -9.453125 16.3125 -7.359375 L 15.515625 -7.359375 C 15.304688 -8.671875 14.769531 -9.753906 13.90625 -10.609375 C 13.050781 -11.472656 11.992188 -11.90625 10.734375 -11.90625 L 10.390625 -11.90625 L 10.390625 -2.953125 C 10.390625 -2.296875 10.441406 -1.820312 10.546875 -1.53125 C 10.648438 -1.238281 10.84375 -1.039062 11.125 -0.9375 C 11.414062 -0.84375 11.867188 -0.796875 12.484375 -0.796875 L 13.625 -0.796875 C 14.957031 -0.796875 16.21875 -1.441406 17.40625 -2.734375 C 18.601562 -4.023438 19.453125 -6.097656 19.953125 -8.953125 L 20.75 -8.953125 C 20.675781 -8.117188 20.640625 -7.0625 20.640625 -5.78125 Z M 20.640625 -5.78125 "/></g></g></g><g fill="#ffffff" fill-opacity="1"><g transform="translate(185.220555, 249.982659)"><g><path d="M 19.234375 -24.296875 C 20.304688 -24.296875 21.1875 -24.328125 21.875 -24.390625 L 21.875 -23.703125 C 20.707031 -23.128906 19.492188 -21.601562 18.234375 -19.125 L 15.03125 -12.796875 L 15.03125 -3.640625 C 15.03125 -2.773438 15.09375 -2.144531 15.21875 -1.75 C 15.34375 -1.363281 15.566406 -1.097656 15.890625 -0.953125 C 16.210938 -0.816406 16.742188 -0.726562 17.484375 -0.6875 L 17.484375 0 C 16.148438 -0.0703125 14.175781 -0.109375 11.5625 -0.109375 C 8.832031 -0.109375 6.847656 -0.0703125 5.609375 0 L 5.609375 -0.6875 C 6.335938 -0.726562 6.867188 -0.816406 7.203125 -0.953125 C 7.535156 -1.097656 7.757812 -1.363281 7.875 -1.75 C 7.988281 -2.144531 8.046875 -2.773438 8.046875 -3.640625 L 8.046875 -9.984375 L 1.6875 -21.75 C 1.320312 -22.414062 0.96875 -22.898438 0.625 -23.203125 C 0.28125 -23.515625 -0.03125 -23.671875 -0.3125 -23.671875 L -0.3125 -24.390625 C 1.113281 -24.253906 2.695312 -24.1875 4.4375 -24.1875 C 6.40625 -24.1875 8.925781 -24.253906 12 -24.390625 L 12 -23.671875 C 11.082031 -23.671875 10.394531 -23.625 9.9375 -23.53125 C 9.476562 -23.4375 9.25 -23.21875 9.25 -22.875 C 9.25 -22.71875 9.296875 -22.546875 9.390625 -22.359375 L 14.3125 -12.9375 L 15.859375 -16.03125 C 16.941406 -18.1875 17.484375 -19.894531 17.484375 -21.15625 C 17.484375 -22.789062 16.5625 -23.640625 14.71875 -23.703125 L 14.71875 -24.390625 C 16.445312 -24.328125 17.953125 -24.296875 19.234375 -24.296875 Z M 19.234375 -24.296875 "/></g></g></g><g fill="#ffffff" fill-opacity="1"><g transform="translate(214.252434, 249.982659)"><g><path d="M 12.828125 -23.671875 C 12.097656 -23.628906 11.566406 -23.535156 11.234375 -23.390625 C 10.898438 -23.253906 10.675781 -22.988281 10.5625 -22.59375 C 10.445312 -22.207031 10.390625 -21.582031 10.390625 -20.71875 L 10.390625 -3.640625 C 10.390625 -2.773438 10.453125 -2.144531 10.578125 -1.75 C 10.703125 -1.363281 10.925781 -1.097656 11.25 -0.953125 C 11.570312 -0.816406 12.097656 -0.726562 12.828125 -0.6875 L 12.828125 0 C 11.503906 -0.0703125 9.59375 -0.109375 7.09375 -0.109375 C 4.3125 -0.109375 2.269531 -0.0703125 0.96875 0 L 0.96875 -0.6875 C 1.695312 -0.726562 2.226562 -0.816406 2.5625 -0.953125 C 2.894531 -1.097656 3.117188 -1.363281 3.234375 -1.75 C 3.347656 -2.144531 3.40625 -2.773438 3.40625 -3.640625 L 3.40625 -20.71875 C 3.40625 -21.582031 3.34375 -22.207031 3.21875 -22.59375 C 3.09375 -22.988281 2.867188 -23.253906 2.546875 -23.390625 C 2.222656 -23.535156 1.695312 -23.628906 0.96875 -23.671875 L 0.96875 -24.359375 C 2.269531 -24.285156 4.3125 -24.25 7.09375 -24.25 C 9.5625 -24.25 11.472656 -24.285156 12.828125 -24.359375 Z M 12.828125 -23.671875 "/></g></g></g><g fill="#ffffff" fill-opacity="1"><g transform="translate(234.926448, 249.982659)"><g><path d="M 24.359375 -23.671875 C 23.648438 -23.515625 23.125 -23.269531 22.78125 -22.9375 C 22.4375 -22.601562 22.207031 -22.09375 22.09375 -21.40625 C 21.976562 -20.71875 21.921875 -19.679688 21.921875 -18.296875 L 21.921875 0 C 21.460938 -0.0390625 21.082031 -0.0625 20.78125 -0.0625 C 20.53125 -0.0625 20.109375 -0.0390625 19.515625 0 L 4.265625 -16.65625 L 4.265625 -6.75 C 4.265625 -5.050781 4.332031 -3.828125 4.46875 -3.078125 C 4.601562 -2.335938 4.90625 -1.789062 5.375 -1.4375 C 5.851562 -1.09375 6.640625 -0.84375 7.734375 -0.6875 L 7.734375 0 C 6.796875 -0.0703125 5.515625 -0.109375 3.890625 -0.109375 C 2.671875 -0.109375 1.71875 -0.0703125 1.03125 0 L 1.03125 -0.6875 C 1.738281 -0.84375 2.265625 -1.085938 2.609375 -1.421875 C 2.953125 -1.753906 3.179688 -2.265625 3.296875 -2.953125 C 3.410156 -3.640625 3.46875 -4.675781 3.46875 -6.0625 L 3.46875 -20.71875 C 3.46875 -21.582031 3.40625 -22.207031 3.28125 -22.59375 C 3.15625 -22.988281 2.929688 -23.253906 2.609375 -23.390625 C 2.296875 -23.535156 1.769531 -23.628906 1.03125 -23.671875 L 1.03125 -24.359375 C 1.71875 -24.285156 2.671875 -24.25 3.890625 -24.25 C 5.128906 -24.25 6.179688 -24.285156 7.046875 -24.359375 L 21.125 -9.5 L 21.125 -17.609375 C 21.125 -19.304688 21.054688 -20.523438 20.921875 -21.265625 C 20.785156 -22.015625 20.476562 -22.5625 20 -22.90625 C 19.53125 -23.257812 18.75 -23.515625 17.65625 -23.671875 L 17.65625 -24.359375 C 18.59375 -24.285156 19.875 -24.25 21.5 -24.25 C 22.71875 -24.25 23.671875 -24.285156 24.359375 -24.359375 Z M 24.359375 -23.671875 "/></g></g></g><g fill="#ffffff" fill-opacity="1"><g transform="translate(266.985032, 249.982659)"><g><path d="M 12.828125 -23.671875 C 12.097656 -23.628906 11.566406 -23.535156 11.234375 -23.390625 C 10.898438 -23.253906 10.675781 -22.988281 10.5625 -22.59375 C 10.445312 -22.207031 10.390625 -21.582031 10.390625 -20.71875 L 10.390625 -3.640625 C 10.390625 -2.773438 10.453125 -2.144531 10.578125 -1.75 C 10.703125 -1.363281 10.925781 -1.097656 11.25 -0.953125 C 11.570312 -0.816406 12.097656 -0.726562 12.828125 -0.6875 L 12.828125 0 C 11.503906 -0.0703125 9.59375 -0.109375 7.09375 -0.109375 C 4.3125 -0.109375 2.269531 -0.0703125 0.96875 0 L 0.96875 -0.6875 C 1.695312 -0.726562 2.226562 -0.816406 2.5625 -0.953125 C 2.894531 -1.097656 3.117188 -1.363281 3.234375 -1.75 C 3.347656 -2.144531 3.40625 -2.773438 3.40625 -3.640625 L 3.40625 -20.71875 C 3.40625 -21.582031 3.34375 -22.207031 3.21875 -22.59375 C 3.09375 -22.988281 2.867188 -23.253906 2.546875 -23.390625 C 2.222656 -23.535156 1.695312 -23.628906 0.96875 -23.671875 L 0.96875 -24.359375 C 2.269531 -24.285156 4.3125 -24.25 7.09375 -24.25 C 9.5625 -24.25 11.472656 -24.285156 12.828125 -24.359375 Z M 12.828125 -23.671875 "/></g></g></g><g clip-path="url(#65d8de8474)"><path fill="#ffffff" d="M 196.382812 148.628906 L 230.769531 204.535156 L 171.082031 204.535156 C 170.800781 203.046875 170.800781 201.507812 171.011719 199.96875 C 171.292969 197.800781 172.046875 195.578125 172.9375 193.390625 L 210.863281 193.390625 L 192.425781 163.339844 C 194.945312 158.667969 196.765625 153.527344 196.382812 148.628906 Z M 196.382812 148.628906 " fill-opacity="1" fill-rule="nonzero"/></g><g clip-path="url(#26d01f63db)"><path fill="#0098da" d="M 175.058594 215.101562 C 168.089844 208.941406 164.148438 202.105469 173.742188 185.835938 C 179.75 175.722656 195.839844 159.597656 193.386719 147.367188 C 192.707031 143.328125 190.816406 140.40625 188.820312 138.414062 C 182.796875 131.101562 169.820312 133.671875 169.820312 133.671875 C 218.933594 145.445312 119.851562 195.648438 175.058594 215.101562 Z M 175.058594 215.101562 " fill-opacity="1" fill-rule="nonzero"/></g><path fill="#0098da" d="M 167.546875 135.839844 L 169.210938 136.226562 C 173.203125 137.1875 179.835938 139.183594 181.097656 143.765625 C 182.058594 147.300781 179.785156 152.039062 178.136719 155.066406 C 175.109375 160.417969 171.171875 165.5625 167.632812 170.597656 C 161.941406 178.523438 153.558594 190.332031 155.449219 200.597656 C 156.253906 205.058594 158.757812 208.523438 162.066406 211.21875 C 150.527344 204.761719 138.535156 194.441406 145.101562 181.828125 C 156.5 159.910156 186.789062 151.601562 167.546875 135.839844 Z M 167.546875 135.839844 " fill-opacity="1" fill-rule="nonzero"/><g fill="#0098da" fill-opacity="1"><g transform="translate(128.880853, 269.927327)"><g><path d="M 7.96875 -0.40625 C 7.394531 -0.15625 6.8125 0.0195312 6.21875 0.125 C 5.632812 0.238281 5.078125 0.296875 4.546875 0.296875 C 4.023438 0.296875 3.554688 0.265625 3.140625 0.203125 C 2.722656 0.148438 2.304688 0.0546875 1.890625 -0.078125 C 1.484375 -0.222656 1.128906 -0.398438 0.828125 -0.609375 C 0.160156 -1.085938 -0.171875 -1.757812 -0.171875 -2.625 C -0.171875 -3.144531 -0.0507812 -3.628906 0.1875 -4.078125 C 0.425781 -4.523438 0.738281 -4.894531 1.125 -5.1875 C 1.945312 -5.820312 2.84375 -6.140625 3.8125 -6.140625 C 4.976562 -6.140625 5.847656 -5.796875 6.421875 -5.109375 C 6.703125 -4.765625 6.84375 -4.34375 6.84375 -3.84375 C 6.84375 -3.351562 6.609375 -2.925781 6.140625 -2.5625 C 5.671875 -2.207031 5.179688 -2.03125 4.671875 -2.03125 C 4.546875 -2.03125 4.484375 -2.09375 4.484375 -2.21875 C 4.484375 -2.34375 4.539062 -2.429688 4.65625 -2.484375 C 4.769531 -2.546875 4.910156 -2.597656 5.078125 -2.640625 C 5.242188 -2.691406 5.410156 -2.753906 5.578125 -2.828125 C 5.972656 -3.015625 6.171875 -3.3125 6.171875 -3.71875 C 6.171875 -4.125 5.984375 -4.429688 5.609375 -4.640625 C 5.242188 -4.847656 4.597656 -4.953125 3.671875 -4.953125 C 2.753906 -4.953125 2.046875 -4.71875 1.546875 -4.25 C 1.046875 -3.78125 0.796875 -3.222656 0.796875 -2.578125 C 0.796875 -1.734375 1.171875 -1.132812 1.921875 -0.78125 C 2.597656 -0.457031 3.40625 -0.296875 4.34375 -0.296875 C 5.957031 -0.296875 7.257812 -0.753906 8.25 -1.671875 C 8.957031 -2.316406 9.3125 -3.128906 9.3125 -4.109375 C 9.3125 -4.691406 9.101562 -5.257812 8.6875 -5.8125 C 8.5 -6.050781 8.296875 -6.289062 8.078125 -6.53125 C 7.859375 -6.78125 7.632812 -7.023438 7.40625 -7.265625 C 7.1875 -7.503906 6.984375 -7.742188 6.796875 -7.984375 C 6.378906 -8.503906 6.171875 -8.992188 6.171875 -9.453125 C 6.171875 -9.910156 6.242188 -10.304688 6.390625 -10.640625 C 6.546875 -10.972656 6.75 -11.257812 7 -11.5 C 7.25 -11.738281 7.535156 -11.945312 7.859375 -12.125 C 8.503906 -12.488281 9.191406 -12.671875 9.921875 -12.671875 C 10.554688 -12.671875 11.144531 -12.519531 11.6875 -12.21875 C 12.289062 -11.882812 12.59375 -11.382812 12.59375 -10.71875 C 12.59375 -10.445312 12.5 -10.210938 12.3125 -10.015625 C 12.125 -9.816406 11.910156 -9.71875 11.671875 -9.71875 C 11.441406 -9.71875 11.25 -9.785156 11.09375 -9.921875 C 10.945312 -10.054688 10.875 -10.207031 10.875 -10.375 C 10.875 -10.539062 10.941406 -10.71875 11.078125 -10.90625 C 11.222656 -11.101562 11.296875 -11.265625 11.296875 -11.390625 C 11.296875 -11.515625 11.242188 -11.628906 11.140625 -11.734375 C 11.035156 -11.835938 10.898438 -11.914062 10.734375 -11.96875 C 10.410156 -12.070312 10.113281 -12.125 9.84375 -12.125 C 9.21875 -12.125 8.679688 -11.9375 8.234375 -11.5625 C 7.796875 -11.195312 7.578125 -10.6875 7.578125 -10.03125 C 7.578125 -9.675781 7.800781 -9.253906 8.25 -8.765625 C 8.445312 -8.554688 8.660156 -8.332031 8.890625 -8.09375 C 9.128906 -7.863281 9.367188 -7.613281 9.609375 -7.34375 C 9.847656 -7.070312 10.070312 -6.789062 10.28125 -6.5 C 10.71875 -5.875 10.9375 -5.21875 10.9375 -4.53125 C 10.9375 -3.851562 10.800781 -3.238281 10.53125 -2.6875 C 10.269531 -2.132812 9.921875 -1.675781 9.484375 -1.3125 C 9.046875 -0.957031 8.539062 -0.65625 7.96875 -0.40625 Z M 7.96875 -0.40625 "/></g></g><g transform="translate(140.535149, 269.927327)"><g><path d="M 6.9375 -5.109375 C 6.15625 -3.023438 5.765625 -1.757812 5.765625 -1.3125 C 5.765625 -1.125 5.8125 -1.03125 5.90625 -1.03125 C 6.164062 -1.03125 6.539062 -1.40625 7.03125 -2.15625 L 7.40625 -1.796875 C 7.09375 -1.234375 6.722656 -0.769531 6.296875 -0.40625 C 5.878906 -0.0390625 5.539062 0.140625 5.28125 0.140625 C 4.726562 0.140625 4.453125 -0.132812 4.453125 -0.6875 C 4.453125 -1.113281 4.550781 -1.632812 4.75 -2.25 C 4.945312 -2.863281 5.046875 -3.175781 5.046875 -3.1875 C 5.023438 -3.132812 4.957031 -3.007812 4.84375 -2.8125 C 4.726562 -2.625 4.644531 -2.484375 4.59375 -2.390625 C 4.539062 -2.296875 4.453125 -2.148438 4.328125 -1.953125 C 4.210938 -1.765625 4.113281 -1.617188 4.03125 -1.515625 C 3.957031 -1.410156 3.851562 -1.269531 3.71875 -1.09375 C 3.59375 -0.925781 3.476562 -0.789062 3.375 -0.6875 C 3.269531 -0.59375 3.144531 -0.484375 3 -0.359375 C 2.863281 -0.242188 2.734375 -0.15625 2.609375 -0.09375 C 2.304688 0.0625 2.015625 0.140625 1.734375 0.140625 C 1.035156 0.140625 0.6875 -0.242188 0.6875 -1.015625 C 0.6875 -1.359375 0.8125 -1.898438 1.0625 -2.640625 C 1.320312 -3.390625 1.453125 -3.828125 1.453125 -3.953125 C 1.453125 -4.085938 1.410156 -4.15625 1.328125 -4.15625 C 1.085938 -4.15625 0.765625 -3.785156 0.359375 -3.046875 L -0.21875 -3.390625 C 0.582031 -4.671875 1.351562 -5.3125 2.09375 -5.3125 C 2.34375 -5.3125 2.539062 -5.238281 2.6875 -5.09375 C 2.832031 -4.957031 2.898438 -4.75 2.890625 -4.46875 C 2.890625 -4.1875 2.75 -3.679688 2.46875 -2.953125 C 2.1875 -2.222656 2.046875 -1.664062 2.046875 -1.28125 C 2.046875 -1.0625 2.144531 -0.953125 2.34375 -0.953125 C 2.5625 -0.953125 2.820312 -1.09375 3.125 -1.375 C 3.4375 -1.664062 3.738281 -2.015625 4.03125 -2.421875 C 4.488281 -3.066406 4.960938 -3.820312 5.453125 -4.6875 L 5.6875 -5.109375 Z M 6.9375 -5.109375 "/></g></g><g transform="translate(148.410149, 269.927327)"><g><path d="M 1.5625 0.140625 C 1.320312 0.140625 1.128906 0.0664062 0.984375 -0.078125 C 0.847656 -0.234375 0.78125 -0.441406 0.78125 -0.703125 C 0.78125 -0.972656 0.847656 -1.335938 0.984375 -1.796875 C 1.117188 -2.265625 1.253906 -2.6875 1.390625 -3.0625 C 1.523438 -3.4375 1.59375 -3.6875 1.59375 -3.8125 C 1.59375 -3.9375 1.554688 -4 1.484375 -4 C 1.273438 -4 0.941406 -3.59375 0.484375 -2.78125 L -0.109375 -3.125 C 0.753906 -4.582031 1.546875 -5.3125 2.265625 -5.3125 C 2.753906 -5.3125 3 -5 3 -4.375 C 3 -4.195312 2.941406 -3.90625 2.828125 -3.5 L 2.203125 -1.703125 C 2.128906 -1.523438 2.09375 -1.367188 2.09375 -1.234375 C 2.09375 -1.097656 2.148438 -1.03125 2.265625 -1.03125 C 2.460938 -1.03125 2.828125 -1.398438 3.359375 -2.140625 L 3.734375 -1.796875 C 3.410156 -1.210938 3.03125 -0.742188 2.59375 -0.390625 C 2.15625 -0.0351562 1.8125 0.140625 1.5625 0.140625 Z M 4.0625 -7.90625 C 4.0625 -7.664062 3.984375 -7.445312 3.828125 -7.25 C 3.671875 -7.0625 3.457031 -6.96875 3.1875 -6.96875 C 2.914062 -6.96875 2.710938 -7.046875 2.578125 -7.203125 C 2.441406 -7.367188 2.375 -7.570312 2.375 -7.8125 C 2.375 -8.0625 2.457031 -8.28125 2.625 -8.46875 C 2.800781 -8.664062 3.019531 -8.765625 3.28125 -8.765625 C 3.539062 -8.765625 3.734375 -8.679688 3.859375 -8.515625 C 3.992188 -8.347656 4.0625 -8.144531 4.0625 -7.90625 Z M 4.0625 -7.90625 "/></g></g><g transform="translate(152.664055, 269.927327)"><g><path d="M 2.390625 -0.84375 C 2.890625 -0.84375 3.394531 -1.019531 3.90625 -1.375 C 4.414062 -1.726562 4.820312 -2.140625 5.125 -2.609375 C 5.425781 -3.078125 5.578125 -3.5 5.578125 -3.875 C 5.546875 -3.820312 5.421875 -3.796875 5.203125 -3.796875 C 4.984375 -3.796875 4.804688 -3.867188 4.671875 -4.015625 C 4.535156 -4.160156 4.46875 -4.332031 4.46875 -4.53125 C 4.46875 -4.726562 4.539062 -4.90625 4.6875 -5.0625 C 4.84375 -5.226562 5.054688 -5.3125 5.328125 -5.3125 C 6.066406 -5.3125 6.4375 -4.90625 6.4375 -4.09375 C 6.4375 -3.71875 6.320312 -3.289062 6.09375 -2.8125 C 5.863281 -2.34375 5.550781 -1.882812 5.15625 -1.4375 C 4.769531 -1 4.265625 -0.625 3.640625 -0.3125 C 3.015625 -0.0078125 2.351562 0.140625 1.65625 0.140625 C 0.957031 0.140625 0.609375 -0.195312 0.609375 -0.875 C 0.609375 -1.25 0.71875 -1.765625 0.9375 -2.421875 C 1.164062 -3.078125 1.28125 -3.492188 1.28125 -3.671875 C 1.28125 -3.859375 1.222656 -3.953125 1.109375 -3.953125 C 0.953125 -3.953125 0.640625 -3.566406 0.171875 -2.796875 L -0.390625 -3.125 C 0.460938 -4.582031 1.253906 -5.3125 1.984375 -5.3125 C 2.171875 -5.3125 2.335938 -5.238281 2.484375 -5.09375 C 2.628906 -4.945312 2.703125 -4.710938 2.703125 -4.390625 C 2.703125 -4.066406 2.582031 -3.46875 2.34375 -2.59375 C 2.113281 -1.71875 2 -1.253906 2 -1.203125 C 2 -0.960938 2.128906 -0.84375 2.390625 -0.84375 Z M 2.390625 -0.84375 "/></g></g><g transform="translate(159.704094, 269.927327)"><g><path d="M 1.5625 0.140625 C 1.320312 0.140625 1.128906 0.0664062 0.984375 -0.078125 C 0.847656 -0.234375 0.78125 -0.441406 0.78125 -0.703125 C 0.78125 -0.972656 0.847656 -1.335938 0.984375 -1.796875 C 1.117188 -2.265625 1.253906 -2.6875 1.390625 -3.0625 C 1.523438 -3.4375 1.59375 -3.6875 1.59375 -3.8125 C 1.59375 -3.9375 1.554688 -4 1.484375 -4 C 1.273438 -4 0.941406 -3.59375 0.484375 -2.78125 L -0.109375 -3.125 C 0.753906 -4.582031 1.546875 -5.3125 2.265625 -5.3125 C 2.753906 -5.3125 3 -5 3 -4.375 C 3 -4.195312 2.941406 -3.90625 2.828125 -3.5 L 2.203125 -1.703125 C 2.128906 -1.523438 2.09375 -1.367188 2.09375 -1.234375 C 2.09375 -1.097656 2.148438 -1.03125 2.265625 -1.03125 C 2.460938 -1.03125 2.828125 -1.398438 3.359375 -2.140625 L 3.734375 -1.796875 C 3.410156 -1.210938 3.03125 -0.742188 2.59375 -0.390625 C 2.15625 -0.0351562 1.8125 0.140625 1.5625 0.140625 Z M 4.0625 -7.90625 C 4.0625 -7.664062 3.984375 -7.445312 3.828125 -7.25 C 3.671875 -7.0625 3.457031 -6.96875 3.1875 -6.96875 C 2.914062 -6.96875 2.710938 -7.046875 2.578125 -7.203125 C 2.441406 -7.367188 2.375 -7.570312 2.375 -7.8125 C 2.375 -8.0625 2.457031 -8.28125 2.625 -8.46875 C 2.800781 -8.664062 3.019531 -8.765625 3.28125 -8.765625 C 3.539062 -8.765625 3.734375 -8.679688 3.859375 -8.515625 C 3.992188 -8.347656 4.0625 -8.144531 4.0625 -7.90625 Z M 4.0625 -7.90625 "/></g></g><g transform="translate(163.958, 269.927327)"><g/></g><g transform="translate(167.034171, 269.927327)"><g><path d="M 1.625 -1.734375 C 1.65625 -1.054688 2.109375 -0.71875 2.984375 -0.71875 C 3.304688 -0.71875 3.640625 -0.8125 3.984375 -1 C 4.335938 -1.1875 4.617188 -1.40625 4.828125 -1.65625 L 5.21875 -1.40625 C 4.726562 -0.59375 3.953125 -0.09375 2.890625 0.09375 C 2.648438 0.125 2.421875 0.140625 2.203125 0.140625 C 1.566406 0.140625 1.035156 -0.0664062 0.609375 -0.484375 C 0.191406 -0.898438 -0.015625 -1.410156 -0.015625 -2.015625 C -0.015625 -2.617188 0.164062 -3.175781 0.53125 -3.6875 C 0.90625 -4.207031 1.367188 -4.609375 1.921875 -4.890625 C 2.484375 -5.171875 3.03125 -5.3125 3.5625 -5.3125 C 4.101562 -5.3125 4.570312 -5.1875 4.96875 -4.9375 C 5.363281 -4.695312 5.566406 -4.367188 5.578125 -3.953125 C 5.585938 -3.535156 5.460938 -3.175781 5.203125 -2.875 C 4.953125 -2.570312 4.632812 -2.34375 4.25 -2.1875 C 3.488281 -1.875 2.738281 -1.71875 2 -1.71875 Z M 1.5625 -2.21875 C 2.21875 -2.238281 2.742188 -2.335938 3.140625 -2.515625 C 3.535156 -2.703125 3.804688 -2.914062 3.953125 -3.15625 C 4.109375 -3.394531 4.1875 -3.644531 4.1875 -3.90625 C 4.1875 -4.164062 4.117188 -4.359375 3.984375 -4.484375 C 3.847656 -4.609375 3.707031 -4.671875 3.5625 -4.671875 C 3.1875 -4.671875 2.84375 -4.539062 2.53125 -4.28125 C 2.21875 -4.019531 1.976562 -3.703125 1.8125 -3.328125 C 1.644531 -2.960938 1.5625 -2.59375 1.5625 -2.21875 Z M 1.5625 -2.21875 "/></g></g><g transform="translate(173.239249, 269.927327)"><g><path d="M 2.390625 -2.46875 C 3.617188 -4.363281 4.71875 -5.3125 5.6875 -5.3125 C 6.007812 -5.3125 6.253906 -5.210938 6.421875 -5.015625 C 6.585938 -4.816406 6.671875 -4.5625 6.671875 -4.25 C 6.671875 -3.945312 6.535156 -3.421875 6.265625 -2.671875 C 5.992188 -1.921875 5.859375 -1.457031 5.859375 -1.28125 C 5.859375 -1.101562 5.898438 -1.015625 5.984375 -1.015625 C 6.097656 -1.015625 6.269531 -1.132812 6.5 -1.375 C 6.726562 -1.613281 6.929688 -1.867188 7.109375 -2.140625 L 7.484375 -1.796875 C 7.128906 -1.148438 6.742188 -0.664062 6.328125 -0.34375 C 5.910156 -0.0195312 5.566406 0.140625 5.296875 0.140625 C 5.035156 0.140625 4.832031 0.0546875 4.6875 -0.109375 C 4.539062 -0.285156 4.46875 -0.523438 4.46875 -0.828125 C 4.46875 -1.128906 4.585938 -1.617188 4.828125 -2.296875 C 5.066406 -2.972656 5.1875 -3.453125 5.1875 -3.734375 C 5.1875 -4.015625 5.085938 -4.15625 4.890625 -4.15625 C 4.671875 -4.15625 4.40625 -4.015625 4.09375 -3.734375 C 3.789062 -3.453125 3.5 -3.101562 3.21875 -2.6875 C 2.757812 -2.03125 2.289062 -1.273438 1.8125 -0.421875 L 1.578125 0 L 0.34375 0 L 0.609375 -0.828125 C 1.117188 -2.347656 1.375 -3.25 1.375 -3.53125 C 1.375 -3.820312 1.328125 -3.96875 1.234375 -3.96875 C 1.066406 -3.96875 0.867188 -3.765625 0.640625 -3.359375 C 0.578125 -3.265625 0.53125 -3.1875 0.5 -3.125 C 0.46875 -3.070312 0.425781 -3.003906 0.375 -2.921875 C 0.332031 -2.847656 0.304688 -2.800781 0.296875 -2.78125 L -0.296875 -3.125 C 0.160156 -3.875 0.578125 -4.425781 0.953125 -4.78125 C 1.335938 -5.132812 1.734375 -5.3125 2.140625 -5.3125 C 2.316406 -5.3125 2.46875 -5.234375 2.59375 -5.078125 C 2.726562 -4.929688 2.796875 -4.75 2.796875 -4.53125 C 2.796875 -4.3125 2.78125 -4.097656 2.75 -3.890625 C 2.71875 -3.679688 2.679688 -3.507812 2.640625 -3.375 C 2.597656 -3.238281 2.546875 -3.0625 2.484375 -2.84375 C 2.429688 -2.625 2.398438 -2.5 2.390625 -2.46875 Z M 2.390625 -2.46875 "/></g></g><g transform="translate(181.184561, 269.927327)"><g/></g><g transform="translate(184.260733, 269.927327)"><g><path d="M 1.203125 -5.109375 C 1.796875 -6.984375 2.410156 -8.554688 3.046875 -9.828125 L 4.125 -9.734375 C 4.0625 -9.546875 3.90625 -9.097656 3.65625 -8.390625 C 3.113281 -6.804688 2.765625 -5.710938 2.609375 -5.109375 L 3.984375 -5.109375 L 3.84375 -4.53125 L 2.421875 -4.53125 C 1.878906 -2.875 1.609375 -1.863281 1.609375 -1.5 C 1.609375 -1.132812 1.644531 -0.953125 1.71875 -0.953125 C 1.789062 -0.953125 1.859375 -0.96875 1.921875 -1 C 2.078125 -1.09375 2.414062 -1.519531 2.9375 -2.28125 L 3.296875 -1.953125 C 2.898438 -1.242188 2.492188 -0.71875 2.078125 -0.375 C 1.660156 -0.03125 1.316406 0.140625 1.046875 0.140625 C 0.785156 0.140625 0.582031 0.046875 0.4375 -0.140625 C 0.300781 -0.328125 0.234375 -0.566406 0.234375 -0.859375 C 0.234375 -1.609375 0.492188 -2.832031 1.015625 -4.53125 L 0.09375 -4.53125 L 0.234375 -5.109375 Z M 1.203125 -5.109375 "/></g></g><g transform="translate(188.207021, 269.927327)"><g><path d="M 1.625 -1.734375 C 1.65625 -1.054688 2.109375 -0.71875 2.984375 -0.71875 C 3.304688 -0.71875 3.640625 -0.8125 3.984375 -1 C 4.335938 -1.1875 4.617188 -1.40625 4.828125 -1.65625 L 5.21875 -1.40625 C 4.726562 -0.59375 3.953125 -0.09375 2.890625 0.09375 C 2.648438 0.125 2.421875 0.140625 2.203125 0.140625 C 1.566406 0.140625 1.035156 -0.0664062 0.609375 -0.484375 C 0.191406 -0.898438 -0.015625 -1.410156 -0.015625 -2.015625 C -0.015625 -2.617188 0.164062 -3.175781 0.53125 -3.6875 C 0.90625 -4.207031 1.367188 -4.609375 1.921875 -4.890625 C 2.484375 -5.171875 3.03125 -5.3125 3.5625 -5.3125 C 4.101562 -5.3125 4.570312 -5.1875 4.96875 -4.9375 C 5.363281 -4.695312 5.566406 -4.367188 5.578125 -3.953125 C 5.585938 -3.535156 5.460938 -3.175781 5.203125 -2.875 C 4.953125 -2.570312 4.632812 -2.34375 4.25 -2.1875 C 3.488281 -1.875 2.738281 -1.71875 2 -1.71875 Z M 1.5625 -2.21875 C 2.21875 -2.238281 2.742188 -2.335938 3.140625 -2.515625 C 3.535156 -2.703125 3.804688 -2.914062 3.953125 -3.15625 C 4.109375 -3.394531 4.1875 -3.644531 4.1875 -3.90625 C 4.1875 -4.164062 4.117188 -4.359375 3.984375 -4.484375 C 3.847656 -4.609375 3.707031 -4.671875 3.5625 -4.671875 C 3.1875 -4.671875 2.84375 -4.539062 2.53125 -4.28125 C 2.21875 -4.019531 1.976562 -3.703125 1.8125 -3.328125 C 1.644531 -2.960938 1.5625 -2.59375 1.5625 -2.21875 Z M 1.5625 -2.21875 "/></g></g><g transform="translate(194.412099, 269.927327)"><g><path d="M 5.59375 0 L 4.296875 0 L 4.46875 -0.578125 C 4.519531 -0.804688 4.625 -1.140625 4.78125 -1.578125 C 5.125 -2.535156 5.296875 -3.28125 5.296875 -3.8125 C 5.296875 -4.039062 5.195312 -4.15625 5 -4.15625 C 4.757812 -4.15625 4.476562 -4.015625 4.15625 -3.734375 C 3.832031 -3.453125 3.519531 -3.101562 3.21875 -2.6875 C 2.71875 -2 2.222656 -1.242188 1.734375 -0.421875 L 1.5 0 L 0.25 0 C 0.25 0 0.34375 -0.273438 0.53125 -0.828125 C 1.039062 -2.347656 1.296875 -3.25 1.296875 -3.53125 C 1.296875 -3.820312 1.25 -3.96875 1.15625 -3.96875 C 0.976562 -3.96875 0.773438 -3.765625 0.546875 -3.359375 C 0.492188 -3.265625 0.445312 -3.1875 0.40625 -3.125 C 0.375 -3.070312 0.335938 -3.003906 0.296875 -2.921875 C 0.253906 -2.847656 0.226562 -2.800781 0.21875 -2.78125 L -0.375 -3.125 C 0.0820312 -3.875 0.5 -4.425781 0.875 -4.78125 C 1.257812 -5.132812 1.648438 -5.3125 2.046875 -5.3125 C 2.234375 -5.3125 2.390625 -5.234375 2.515625 -5.078125 C 2.648438 -4.929688 2.71875 -4.753906 2.71875 -4.546875 C 2.71875 -4.335938 2.703125 -4.148438 2.671875 -3.984375 C 2.648438 -3.828125 2.625 -3.679688 2.59375 -3.546875 C 2.570312 -3.410156 2.535156 -3.25 2.484375 -3.0625 C 2.429688 -2.875 2.382812 -2.726562 2.34375 -2.625 C 2.3125 -2.53125 2.269531 -2.394531 2.21875 -2.21875 C 2.164062 -2.050781 2.132812 -1.953125 2.125 -1.921875 C 2.238281 -2.128906 2.425781 -2.4375 2.6875 -2.84375 C 2.957031 -3.257812 3.132812 -3.519531 3.21875 -3.625 C 3.300781 -3.726562 3.410156 -3.867188 3.546875 -4.046875 C 3.691406 -4.222656 3.816406 -4.359375 3.921875 -4.453125 C 4.035156 -4.554688 4.164062 -4.664062 4.3125 -4.78125 C 4.46875 -4.90625 4.613281 -5.003906 4.75 -5.078125 C 5.082031 -5.234375 5.414062 -5.3125 5.75 -5.3125 C 6.09375 -5.3125 6.347656 -5.210938 6.515625 -5.015625 C 6.691406 -4.828125 6.78125 -4.601562 6.78125 -4.34375 C 6.78125 -4.09375 6.738281 -3.828125 6.65625 -3.546875 C 6.582031 -3.273438 6.472656 -2.957031 6.328125 -2.59375 C 6.191406 -2.226562 6.101562 -1.984375 6.0625 -1.859375 C 6.625 -2.765625 7.054688 -3.40625 7.359375 -3.78125 C 8.171875 -4.800781 8.976562 -5.3125 9.78125 -5.3125 C 10.164062 -5.3125 10.441406 -5.21875 10.609375 -5.03125 C 10.785156 -4.84375 10.875 -4.585938 10.875 -4.265625 C 10.875 -3.941406 10.734375 -3.40625 10.453125 -2.65625 C 10.179688 -1.90625 10.046875 -1.445312 10.046875 -1.28125 C 10.046875 -1.113281 10.097656 -1.03125 10.203125 -1.03125 C 10.441406 -1.03125 10.816406 -1.398438 11.328125 -2.140625 L 11.703125 -1.796875 C 11.359375 -1.179688 10.976562 -0.703125 10.5625 -0.359375 C 10.144531 -0.0234375 9.785156 0.140625 9.484375 0.140625 C 9.191406 0.140625 8.984375 0.046875 8.859375 -0.140625 C 8.742188 -0.335938 8.6875 -0.566406 8.6875 -0.828125 C 8.6875 -1.097656 8.800781 -1.570312 9.03125 -2.25 C 9.269531 -2.925781 9.390625 -3.445312 9.390625 -3.8125 C 9.390625 -4.039062 9.289062 -4.15625 9.09375 -4.15625 C 8.5 -4.15625 7.648438 -3.296875 6.546875 -1.578125 C 6.097656 -0.878906 5.78125 -0.351562 5.59375 0 Z M 5.59375 0 "/></g></g><g transform="translate(206.576161, 269.927327)"><g><path d="M 6.046875 -1.6875 C 5.785156 -1.15625 5.410156 -0.71875 4.921875 -0.375 C 4.441406 -0.03125 3.890625 0.140625 3.265625 0.140625 C 2.640625 0.140625 2.140625 -0.0976562 1.765625 -0.578125 C 1.492188 0.503906 1.257812 1.273438 1.0625 1.734375 C 0.457031 3.171875 -0.375 3.894531 -1.4375 3.90625 C -1.695312 3.90625 -1.914062 3.816406 -2.09375 3.640625 C -2.269531 3.460938 -2.359375 3.257812 -2.359375 3.03125 C -2.359375 2.800781 -2.296875 2.617188 -2.171875 2.484375 C -2.054688 2.347656 -1.898438 2.28125 -1.703125 2.28125 C -1.515625 2.28125 -1.351562 2.328125 -1.21875 2.421875 C -1.09375 2.515625 -1.03125 2.65625 -1.03125 2.84375 C -1.03125 3.03125 -1.132812 3.234375 -1.34375 3.453125 L -1.296875 3.53125 C -0.929688 3.53125 -0.597656 3 -0.296875 1.9375 C -0.179688 1.507812 -0.0976562 1.175781 -0.046875 0.9375 C 0.00390625 0.695312 0.0351562 0.550781 0.046875 0.5 L 0.96875 -3.125 C 0.6875 -2.9375 0.320312 -2.578125 -0.125 -2.046875 L -0.46875 -2.4375 C -0.207031 -2.789062 0.09375 -3.132812 0.4375 -3.46875 C 0.789062 -3.8125 1.015625 -4.03125 1.109375 -4.125 C 1.566406 -5.476562 2.007812 -6.492188 2.4375 -7.171875 C 2.882812 -7.847656 3.378906 -8.382812 3.921875 -8.78125 L 4.15625 -8.5625 C 3.789062 -8.125 3.476562 -7.566406 3.21875 -6.890625 C 2.957031 -6.210938 2.789062 -5.5625 2.71875 -4.9375 C 3.34375 -5.1875 3.9375 -5.3125 4.5 -5.3125 C 5.070312 -5.3125 5.539062 -5.128906 5.90625 -4.765625 C 6.269531 -4.410156 6.453125 -3.941406 6.453125 -3.359375 C 6.453125 -2.773438 6.316406 -2.21875 6.046875 -1.6875 Z M 2.625 -4.140625 L 1.953125 -1.1875 C 2.066406 -0.957031 2.242188 -0.785156 2.484375 -0.671875 C 2.734375 -0.554688 3.019531 -0.5 3.34375 -0.5 C 3.664062 -0.5 3.960938 -0.632812 4.234375 -0.90625 C 4.734375 -1.414062 4.984375 -2.085938 4.984375 -2.921875 C 4.984375 -3.660156 4.785156 -4.15625 4.390625 -4.40625 C 4.234375 -4.519531 4.019531 -4.578125 3.75 -4.578125 C 3.488281 -4.578125 3.113281 -4.429688 2.625 -4.140625 Z M 2.625 -4.140625 "/></g></g><g transform="translate(213.739246, 269.927327)"><g><path d="M 0.8125 -0.0625 C 0.4375 -0.195312 0.164062 -0.351562 0 -0.53125 C -0.164062 -0.71875 -0.25 -0.921875 -0.25 -1.140625 C -0.25 -1.367188 -0.1875 -1.554688 -0.0625 -1.703125 C 0.0625 -1.847656 0.222656 -1.921875 0.421875 -1.921875 C 0.628906 -1.921875 0.8125 -1.859375 0.96875 -1.734375 C 1.125 -1.617188 1.203125 -1.453125 1.203125 -1.234375 C 1.203125 -1.015625 1.066406 -0.832031 0.796875 -0.6875 C 1.015625 -0.488281 1.351562 -0.390625 1.8125 -0.390625 C 2.800781 -0.390625 3.296875 -0.671875 3.296875 -1.234375 C 3.296875 -1.585938 2.984375 -1.867188 2.359375 -2.078125 C 2.097656 -2.171875 1.835938 -2.265625 1.578125 -2.359375 C 1.316406 -2.460938 1.085938 -2.609375 0.890625 -2.796875 C 0.703125 -2.992188 0.597656 -3.226562 0.578125 -3.5 C 0.578125 -3.90625 0.707031 -4.242188 0.96875 -4.515625 C 1.46875 -5.046875 2.210938 -5.3125 3.203125 -5.3125 C 3.691406 -5.3125 4.125 -5.21875 4.5 -5.03125 C 4.875 -4.84375 5.0625 -4.601562 5.0625 -4.3125 C 5.0625 -4.019531 4.984375 -3.804688 4.828125 -3.671875 C 4.679688 -3.546875 4.507812 -3.484375 4.3125 -3.484375 C 4.113281 -3.484375 3.945312 -3.535156 3.8125 -3.640625 C 3.675781 -3.753906 3.609375 -3.90625 3.609375 -4.09375 C 3.609375 -4.289062 3.722656 -4.460938 3.953125 -4.609375 C 3.804688 -4.703125 3.5625 -4.75 3.21875 -4.75 C 2.875 -4.75 2.5625 -4.695312 2.28125 -4.59375 C 2.007812 -4.5 1.875 -4.363281 1.875 -4.1875 C 1.875 -4.007812 1.972656 -3.859375 2.171875 -3.734375 C 2.378906 -3.617188 2.625 -3.507812 2.90625 -3.40625 C 3.195312 -3.3125 3.484375 -3.203125 3.765625 -3.078125 C 4.054688 -2.953125 4.300781 -2.765625 4.5 -2.515625 C 4.707031 -2.273438 4.8125 -1.976562 4.8125 -1.625 C 4.8125 -1.28125 4.664062 -0.960938 4.375 -0.671875 C 3.832031 -0.128906 3.085938 0.140625 2.140625 0.140625 C 1.640625 0.140625 1.195312 0.0703125 0.8125 -0.0625 Z M 0.8125 -0.0625 "/></g></g><g transform="translate(219.51366, 269.927327)"><g/></g><g transform="translate(222.589832, 269.927327)"><g><path d="M 4.828125 -4.15625 C 4.597656 -4.15625 4.332031 -4.015625 4.03125 -3.734375 C 3.726562 -3.453125 3.429688 -3.101562 3.140625 -2.6875 C 2.691406 -2.03125 2.226562 -1.273438 1.75 -0.421875 L 1.515625 0 L 0.265625 0 C 0.265625 0 0.359375 -0.273438 0.546875 -0.828125 C 1.054688 -2.347656 1.3125 -3.25 1.3125 -3.53125 C 1.3125 -3.820312 1.265625 -3.96875 1.171875 -3.96875 C 1.003906 -3.96875 0.800781 -3.765625 0.5625 -3.359375 C 0.507812 -3.265625 0.460938 -3.1875 0.421875 -3.125 C 0.390625 -3.070312 0.351562 -3.003906 0.3125 -2.921875 C 0.269531 -2.847656 0.242188 -2.800781 0.234375 -2.78125 L -0.359375 -3.125 C 0.0976562 -3.875 0.515625 -4.425781 0.890625 -4.78125 C 1.273438 -5.132812 1.664062 -5.3125 2.0625 -5.3125 C 2.25 -5.3125 2.40625 -5.234375 2.53125 -5.078125 C 2.664062 -4.929688 2.734375 -4.753906 2.734375 -4.546875 C 2.734375 -4.335938 2.71875 -4.148438 2.6875 -3.984375 C 2.664062 -3.828125 2.640625 -3.679688 2.609375 -3.546875 C 2.585938 -3.410156 2.550781 -3.25 2.5 -3.0625 C 2.445312 -2.875 2.40625 -2.726562 2.375 -2.625 C 2.34375 -2.53125 2.296875 -2.394531 2.234375 -2.21875 C 2.179688 -2.050781 2.148438 -1.953125 2.140625 -1.921875 C 2.242188 -2.128906 2.421875 -2.4375 2.671875 -2.84375 C 2.929688 -3.257812 3.097656 -3.519531 3.171875 -3.625 C 3.242188 -3.726562 3.347656 -3.867188 3.484375 -4.046875 C 3.617188 -4.222656 3.738281 -4.359375 3.84375 -4.453125 C 3.945312 -4.554688 4.070312 -4.671875 4.21875 -4.796875 C 4.363281 -4.921875 4.5 -5.015625 4.625 -5.078125 C 4.945312 -5.234375 5.257812 -5.3125 5.5625 -5.3125 C 5.875 -5.3125 6.117188 -5.21875 6.296875 -5.03125 C 6.484375 -4.851562 6.578125 -4.644531 6.578125 -4.40625 C 6.578125 -4.175781 6.503906 -3.972656 6.359375 -3.796875 C 6.210938 -3.617188 6.039062 -3.53125 5.84375 -3.53125 C 5.644531 -3.53125 5.488281 -3.5625 5.375 -3.625 C 5.269531 -3.695312 5.195312 -3.769531 5.15625 -3.84375 C 5.03125 -4.050781 4.921875 -4.15625 4.828125 -4.15625 Z M 4.828125 -4.15625 "/></g></g><g transform="translate(229.304675, 269.927327)"><g><path d="M 1.625 -1.734375 C 1.65625 -1.054688 2.109375 -0.71875 2.984375 -0.71875 C 3.304688 -0.71875 3.640625 -0.8125 3.984375 -1 C 4.335938 -1.1875 4.617188 -1.40625 4.828125 -1.65625 L 5.21875 -1.40625 C 4.726562 -0.59375 3.953125 -0.09375 2.890625 0.09375 C 2.648438 0.125 2.421875 0.140625 2.203125 0.140625 C 1.566406 0.140625 1.035156 -0.0664062 0.609375 -0.484375 C 0.191406 -0.898438 -0.015625 -1.410156 -0.015625 -2.015625 C -0.015625 -2.617188 0.164062 -3.175781 0.53125 -3.6875 C 0.90625 -4.207031 1.367188 -4.609375 1.921875 -4.890625 C 2.484375 -5.171875 3.03125 -5.3125 3.5625 -5.3125 C 4.101562 -5.3125 4.570312 -5.1875 4.96875 -4.9375 C 5.363281 -4.695312 5.566406 -4.367188 5.578125 -3.953125 C 5.585938 -3.535156 5.460938 -3.175781 5.203125 -2.875 C 4.953125 -2.570312 4.632812 -2.34375 4.25 -2.1875 C 3.488281 -1.875 2.738281 -1.71875 2 -1.71875 Z M 1.5625 -2.21875 C 2.21875 -2.238281 2.742188 -2.335938 3.140625 -2.515625 C 3.535156 -2.703125 3.804688 -2.914062 3.953125 -3.15625 C 4.109375 -3.394531 4.1875 -3.644531 4.1875 -3.90625 C 4.1875 -4.164062 4.117188 -4.359375 3.984375 -4.484375 C 3.847656 -4.609375 3.707031 -4.671875 3.5625 -4.671875 C 3.1875 -4.671875 2.84375 -4.539062 2.53125 -4.28125 C 2.21875 -4.019531 1.976562 -3.703125 1.8125 -3.328125 C 1.644531 -2.960938 1.5625 -2.59375 1.5625 -2.21875 Z M 3.609375 -5.90625 L 3.140625 -5.90625 C 3.367188 -6.238281 3.832031 -6.957031 4.53125 -8.0625 L 4.828125 -8.546875 L 6.328125 -8.546875 C 6.242188 -8.460938 6.015625 -8.226562 5.640625 -7.84375 C 4.671875 -6.84375 3.992188 -6.195312 3.609375 -5.90625 Z M 3.609375 -5.90625 "/></g></g><g transform="translate(235.509753, 269.927327)"><g><path d="M 1.625 -1.734375 C 1.65625 -1.054688 2.109375 -0.71875 2.984375 -0.71875 C 3.304688 -0.71875 3.640625 -0.8125 3.984375 -1 C 4.335938 -1.1875 4.617188 -1.40625 4.828125 -1.65625 L 5.21875 -1.40625 C 4.726562 -0.59375 3.953125 -0.09375 2.890625 0.09375 C 2.648438 0.125 2.421875 0.140625 2.203125 0.140625 C 1.566406 0.140625 1.035156 -0.0664062 0.609375 -0.484375 C 0.191406 -0.898438 -0.015625 -1.410156 -0.015625 -2.015625 C -0.015625 -2.617188 0.164062 -3.175781 0.53125 -3.6875 C 0.90625 -4.207031 1.367188 -4.609375 1.921875 -4.890625 C 2.484375 -5.171875 3.03125 -5.3125 3.5625 -5.3125 C 4.101562 -5.3125 4.570312 -5.1875 4.96875 -4.9375 C 5.363281 -4.695312 5.566406 -4.367188 5.578125 -3.953125 C 5.585938 -3.535156 5.460938 -3.175781 5.203125 -2.875 C 4.953125 -2.570312 4.632812 -2.34375 4.25 -2.1875 C 3.488281 -1.875 2.738281 -1.71875 2 -1.71875 Z M 1.5625 -2.21875 C 2.21875 -2.238281 2.742188 -2.335938 3.140625 -2.515625 C 3.535156 -2.703125 3.804688 -2.914062 3.953125 -3.15625 C 4.109375 -3.394531 4.1875 -3.644531 4.1875 -3.90625 C 4.1875 -4.164062 4.117188 -4.359375 3.984375 -4.484375 C 3.847656 -4.609375 3.707031 -4.671875 3.5625 -4.671875 C 3.1875 -4.671875 2.84375 -4.539062 2.53125 -4.28125 C 2.21875 -4.019531 1.976562 -3.703125 1.8125 -3.328125 C 1.644531 -2.960938 1.5625 -2.59375 1.5625 -2.21875 Z M 1.5625 -2.21875 "/></g></g><g transform="translate(241.71483, 269.927327)"><g><path d="M 3.265625 -11.6875 L 4.6875 -11.6875 C 4.4375 -11.257812 4.050781 -10.296875 3.53125 -8.796875 C 3.007812 -7.304688 2.53125 -5.804688 2.09375 -4.296875 C 1.664062 -2.796875 1.453125 -1.875 1.453125 -1.53125 C 1.453125 -1.195312 1.492188 -1.03125 1.578125 -1.03125 C 1.828125 -1.03125 2.210938 -1.398438 2.734375 -2.140625 L 3.109375 -1.796875 C 2.847656 -1.347656 2.566406 -0.972656 2.265625 -0.671875 C 1.742188 -0.128906 1.316406 0.140625 0.984375 0.140625 C 0.390625 0.140625 0.09375 -0.21875 0.09375 -0.9375 C 0.09375 -2.007812 0.445312 -3.695312 1.15625 -6 C 1.863281 -8.3125 2.566406 -10.207031 3.265625 -11.6875 Z M 3.265625 -11.6875 "/></g></g></g></svg>